<?xml version="1.0" encoding="UTF-8"?>
<svg id="Layer_1" data-name="Layer 1" xmlns="http://www.w3.org/2000/svg" viewBox="0 0 255.27 104.21">
  <defs>
    <style>
      .cls-1 {
        fill: #fff;
      }

      .cls-2 {
        fill: #231f20;
      }
    </style>
  </defs>
  <g>
    <path d="m243.38,27.55c-2.19,2.41-4.4,4.79-6.56,7.22-6.43,7.27-12.75,14.64-19.26,21.84-8.69,9.59-17.52,19.05-26.29,28.58-.7.76-1.37,1.57-1.96,2.42-.2.28-.39.95-.15,1.15s.99.02,1.24-.22c1.33-1.26,2.54-2.65,3.87-3.92,4.84-4.65,9.61-9.38,14.58-13.88,10.4-9.41,20.95-18.63,31.35-28.04,4.92-4.45,9.62-9.13,14.42-13.71.18-.17.42-.28.63-.41-.1.24-.15.54-.32.72-1.39,1.43-2.75,2.9-4.22,4.25-6.66,6.15-13.26,12.38-20.08,18.36-3.84,3.37-6.97,7.36-10.41,11.07-5.81,6.27-11.57,12.59-17.35,18.88-.22.24-.59.45-.62.7-.06.48.07.99.12,1.49.28-.17.6-.29.83-.5,10.11-9.49,20.21-18.99,30.31-28.48,4.89-4.59,9.8-9.18,14.7-13.76.16-.15.36-.24.54-.36-.08.2-.11.46-.25.6-1.87,1.91-3.71,3.86-5.65,5.7-10.58,9.98-21.18,19.94-31.79,29.88-2.56,2.4-5.19,4.74-7.83,7.07-.58.51-.78,1.01-.64,1.75.23,1.26.34,2.53.58,3.79.15.76-.09,1.17-.84,1.26-.87.1-.9.57-.82,1.34.33,3.05.55,6.11.82,9.17.08.93-.27,1.35-1.26,1.46-3.13.35-6.26.77-9.38,1.21-.9.13-1.3-.07-1.43-1.04-.39-2.89-.93-5.75-1.3-8.64-.12-.98-.47-1.34-1.41-1.21-1.01.14-1.47-.23-1.63-1.34-1.13-8.02-2.31-16.03-3.53-24.04-.55-3.63-1.26-7.23-1.86-10.85-.11-.7-.31-.94-1.07-.83-2.33.34-4.67.63-7.01.86-.82.08-1.1.34-1.03,1.18.23,2.7.38,5.42.6,8.12.05.63.03,1.14-.71,1.27-2.42.43-5.26.88-7.3.46-.42-.14-.95-.62-1.02-1.01-.4-2.36-.72-4.73-.97-7.11-.09-.87-.42-1.24-1.25-1.19-1.02.06-1.35-.44-1.48-1.42-.99-7.56-1.98-15.11-3.08-22.65-.8-5.51.19-10.56,3.47-15.11,1.57-2.18,3.59-3.91,5.96-5.1,2.48-1.25,2.76-2.83,1.72-5.11-.49-1.09-.41-1.67.67-2.31,1.41-.85,3.01-1.52,3.87-3.11.13-.24.61-.35.94-.4,9.26-1.21,18.52-2.42,27.78-3.59.52-.07,1.37.11,1.55.29.57.59.28,1.91-.15,2.45-1.27,1.59-.39,3.21-.39,4.81,0,.13.49.35.77.4,8.72,1.54,14.53,9.61,15.06,18.28.47,7.77.91,15.54,1.37,23.32.09,1.61.04,1.71-1.54,1.81-.84.05-1.1.33-.93,1.19.21,1.05.25,2.14.38,3.21.03.22.11.42.17.64.17-.15.37-.29.52-.46,4.23-4.79,8.45-9.59,12.69-14.37,3.76-4.25,7.53-8.49,11.32-12.7.51-.57,1.86-1.38,1.9-1.33Zm-26.65.03c-.19-3.18-.76-6.27-2.2-9.13-2.32-4.6-5.81-7.91-10.87-9.26-2.84-.76-2.85-.64-3.06-3.6-.09-1.23-.42-2.46.79-3.42.21-.16.18-.76.08-1.1-.04-.13-.61-.17-.93-.13-8.99,1.14-17.97,2.29-26.95,3.45-.41.05-.84.24-1.17.49-1.09.84-2.07,1.84-3.22,2.59-.9.59-1.24,1-.77,2.15,1.01,2.49.41,4.25-1.79,5.38-7.28,3.72-10.76,11.48-9.54,19.61,1.1,7.34,2.07,14.69,3.04,22.05.12.94.38,1.41,1.35,1.34.89-.06,1.27.33,1.37,1.24.26,2.34.64,4.66.9,7,.09.8.42.99,1.16,1.17,1.39.07,3.47-.2,5.2-.42.87-.11,1.12-.47,1.04-1.33-.24-2.62-.36-5.26-.61-7.88-.09-.94.1-1.39,1.14-1.5,2.82-.29,5.63-.65,8.43-1.03.78-.11,1.08.17,1.2.91.36,2.2.82,4.39,1.15,6.6,1.45,9.46,2.89,18.93,4.26,28.4.15,1.04.53,1.27,1.44,1.16.95-.12,1.44.24,1.58,1.29.39,2.93.92,5.83,1.33,8.76.11.79.35.98,1.14.86,2.68-.41,5.37-.77,8.07-1.06.85-.09,1.22-.32,1.13-1.22-.3-3.09-.53-6.19-.86-9.28-.08-.78.04-1.18.86-1.39.34-.08.85-.59.81-.85-.43-3.28-.95-6.55-1.45-9.82-.03-.21-.16-.42-.24-.62-.18.15-.52.33-.5.45.17,1.24-.53,1.55-1.58,1.65-.26.02-.5.37-.72.6-1.85,1.98-3.68,4-5.56,5.96-.6.63-2.08,2.45-3.29,1.43-.87-.73.3-2.24.66-2.66,1.16-1.32,2.36-2.6,3.54-3.91.18-.2.65-.63.8-.85-.37.03-.59.09-1.12.12-1.7.21-3.4.45-5.1.67-.62.08-1.2.15-1.27-.76-.21-2.62-.45-5.24-.72-7.85-.07-.68.14-.91.81-.99,3.29-.38,6.57-.79,9.85-1.2,2.39-.3,2.38-.3,2.78,2.03.11.63.31,1.24.46,1.87.99-.59.39-1.41.24-2.65-.9-6.36-1.8-12.21-2.79-18.56-.16-1.05.18-1.31,1.15-1.4,2.94-.29,5.87-.66,8.8-1.04.76-.1,1.09.15,1.24.89.5,2.38,1.06,4.75,1.58,7.12.38,1.75.82,2.03,2.47,1.44.24-.09.46-.31.65-.51.94-.98,1.9-1.94,2.8-2.96.22-.24.34-.68.31-1.01-.13-1.51-.34-3.01-.49-4.52-.17-1.63-.15-1.65,1.45-1.78.67-.05,1-.24.98-1-.05-1.56-.86-16.22-1.21-22Zm-9.76,25.26c-3.05.34-5.79.63-8.51.99-.2.03-.5.61-.46.9.22,1.86.52,3.71.79,5.56.64,4.34,1.28,8.68,1.94,13.01.03.22.16.43.25.64.16-.11.35-.19.47-.33,3.19-3.57,6.37-7.15,9.55-10.73.1-.11.14-.27.21-.41-.08-.05-.07-.09-.34-.05-1.62.24-1.64-.63-1.86-1.69-.49-2.38-1.03-4.75-1.58-7.12-.08-.33-.36-.61-.46-.78Zm-20.07,20.39c-.6.06-.87.27-.79.9.29,2.33.59,4.66.83,7,.07.65.33.79.92.71,1.14-.17,1.83-.2,3.43-.43,1.32-.24,2.56-.29,3.27-.63.96-.46,1.47-1.3,2.4-2.23,2.1-2.47,2.27-2.57,1.52-5.18-.67-1.72-1.23-1.19-11.58-.14Zm37.15-15.28l-.2-.16c-.36.31-.72.62-1.07.94-6.64,6.06-13.24,12.15-19.95,18.13-1.16,1.03-1.48,2-1.08,3.38.14.49.23.99.34,1.48.41-.35.87-.66,1.23-1.05,4.43-4.82,8.85-9.65,13.27-14.49,2.5-2.74,4.97-5.49,7.46-8.23Z"/>
    <path d="m246.93,25.6c.28.26.41.35.51.47,1.19,1.39,2.39,2.78,3.56,4.18.11.14.08.39.12.59-.17-.08-.39-.11-.5-.24-1.22-1.42-2.43-2.85-3.62-4.29-.1-.12-.04-.36-.07-.71Z"/>
    <path d="m249.03,33.21c-.04.08-.07.22-.15.25-.07.03-.23-.03-.29-.1-1.39-1.57-2.77-3.16-4.15-4.74-.06-.07-.04-.21-.05-.32.14.01.34-.03.4.04,1.4,1.57,2.78,3.15,4.16,4.73.03.03.04.07.07.14Z"/>
    <path d="m239.83,32.92c.13.12.28.24.41.38,1.17,1.29,2.35,2.57,3.51,3.88.15.17.16.45.24.68-.2-.1-.44-.14-.58-.29-1.23-1.34-2.45-2.7-3.65-4.07-.11-.12-.11-.34-.17-.51.07-.02.13-.04.24-.07Z"/>
    <path d="m242.69,31.07c1.16,1.31,2.33,2.61,3.48,3.92.13.15.16.4.24.6-.19-.07-.43-.1-.56-.23-1.23-1.35-2.44-2.72-3.65-4.09-.11-.12-.12-.33-.18-.5.15.07.54.16.67.3Z"/>
    <path d="m241.42,40.17c-.04.08-.09.18-.14.27-.17-.09-.38-.15-.49-.28-.75-.87-1.49-1.76-2.23-2.64-.38-.46-.78-.9-1.14-1.38-.09-.12-.06-.34-.09-.51.13.04.32.04.4.13,1.19,1.38,2.37,2.78,3.55,4.17.05.06.08.14.14.23Z"/>
    <path d="m234.91,38.43c.08-.19.12-.3.17-.4.11.05.25.06.32.15,1.13,1.34,2.26,2.68,3.38,4.03.06.07.05.23.01.32-.01.04-.23.06-.27.02-1.21-1.37-2.41-2.75-3.6-4.11Z"/>
    <path d="m236.36,44.71c-.04.07-.08.23-.15.25-.09.03-.25-.02-.31-.09-1.1-1.31-2.2-2.63-3.28-3.95-.05-.06.02-.21.03-.32.11.02.26,0,.31.06,1.11,1.3,2.22,2.61,3.32,3.92.03.03.04.07.08.14Z"/>
    <path d="m250.15,23.68c.25.19.39.27.48.38.98,1.15,1.96,2.3,2.93,3.46.1.12.08.33.11.5-.14-.04-.33-.03-.41-.12-1.05-1.2-2.08-2.41-3.1-3.63-.08-.09-.01-.3-.01-.59Z"/>
    <path d="m230.47,42.98c.08.07.19.13.26.22.97,1.21,1.94,2.41,2.89,3.63.09.12.05.35.07.53-.16-.09-.37-.14-.47-.27-.95-1.17-1.9-2.34-2.83-3.53-.1-.13-.1-.34-.13-.52,0,0,.13-.04.22-.06Z"/>
    <path d="m231.47,49.49c-.16,0-.39.06-.45,0-.99-1.14-1.95-2.31-2.92-3.47-.06-.07-.08-.24-.03-.32.03-.06.25-.09.29-.05,1.03,1.21,2.06,2.42,3.08,3.64.02.03.01.07.03.21Z"/>
    <path d="m229.08,51.21c-.03.17-.05.3-.05.3-.14,0-.34.02-.41-.06-.92-1.03-1.83-2.08-2.73-3.13-.05-.06-.03-.24.02-.32.03-.04.24-.05.29,0,.99,1.08,1.96,2.16,2.9,3.2Z"/>
    <path class="cls-1" d="m224.05,57.95c-2.49,2.74-4.96,5.5-7.46,8.23-4.41,4.84-8.84,9.67-13.27,14.49-.36.39-.82.7-1.23,1.05-.11-.49-.2-1-.34-1.48-.4-1.38-.08-2.34,1.08-3.38,6.71-5.98,13.31-12.08,19.95-18.13.35-.32.71-.63,1.07-.94l.2.16Z"/>
    <path d="m181.41,22.27c5.03-.43,9.97-.84,14.9-1.26.16-.01.32-.08.47-.06.23.04.45.15.68.23-.2.08-.4.21-.61.23-2.47.23-4.93.44-7.4.66-2.63.23-5.25.45-7.88.68-1.8.16-2.71-.52-2.93-2.28-.54-4.24-1.06-8.48-1.6-12.72-.13-.98.02-1.46,1.24-1.57,5.93-.51,11.85-1.15,17.76-1.76.68-.07,1.01.06,1.11.82.53,4.4,1.11,8.8,1.66,13.2.03.24-.07.49-.11.74-.09-.24-.23-.47-.26-.72-.55-4.12-1.12-8.23-1.6-12.36-.11-.95-.34-1.29-1.38-1.19-5.68.59-11.37,1.11-17.06,1.64-.72.07-1.07.21-.95,1.07.58,4.23,1.09,8.48,1.65,12.72.2,1.52.84,2,2.31,1.94Z"/>
    <path d="m160.09,37.17c-.07-.69-.08-1.37-.05-2.06.1-2.81,0-5.17.49-7.4,1.5-6.85,5.89-11.33,12.34-13.88.27-.11.59-.08.89-.12-.24.17-.46.4-.72.51-4.93,1.96-8.74,5.17-10.86,10.03-.81,1.86-1.43,5.07-1.5,7.1-.28,7.84.75,15.62,1.56,23.41.01.12.03.24.04.36.25,2.07.25,2.04,2.27,2.26.34.04.86.47.9.78.41,2.72.74,5.46,1.08,8.19.02.19-.11.39-.17.59-.09-.19-.23-.38-.26-.58-.33-2.45-.68-4.91-.95-7.37-.1-.89-.4-1.22-1.33-1.18-1.67.06-1.73.01-1.9-1.69-.65-6.5-1.26-12.99-1.83-18.94Z"/>
    <path d="m168.21,27.5c-.15,0-.3-.13-.45-.2.13-.06.26-.16.39-.17,1.95-.15,3.9-.35,5.85-.42,1.11-.04,3.35,2.17,3.5,3.3.42,3.29.81,6.57,1.26,9.86.1.72-.17.9-.8.97-4,.48-8.01.96-12,1.5-.92.12-1.26-.07-1.34-1.06-.28-3.42-.7-6.83-.99-10.25-.04-.47.22-1.07.54-1.44.59-.69,1.33-1.26,2.01-1.87.11-.09.27-.12.41-.17-.04.16-.03.38-.13.48-.57.56-1.25,1.02-1.73,1.64-.35.45-.67,1.1-.63,1.64.25,3.22.62,6.44.92,9.65.07.72.26,1.02,1.11.91,3.72-.5,7.45-.94,11.18-1.34.92-.1,1.09-.45.97-1.32-.42-2.96-.77-5.94-1.13-8.91-.17-1.37-2.27-3.22-3.67-3.16-.84.03-4.34.32-5.26.35Z"/>
    <path d="m215.95,47.82c-.05.07-.15.2-.25.33-.1-.2-.26-.39-.29-.6-.39-2.56-.93-5.12-1.09-7.7-.33-5.28-.83-10.5-2.37-15.59-.85-2.82-1.93-5.5-4.08-7.62-1.78-1.76-3.85-2.95-6.3-3.5-.32-.07-.61-.26-.91-.4.36-.01.74-.1,1.08-.02,5.13,1.28,8.38,4.61,10.04,9.52,1.54,4.56,2.42,9.24,2.77,14.06.27,3.65.84,7.29,1.28,10.93.02.16.06.31.11.58Z"/>
    <path d="m188.45,48.52c-.01,1.33-.95,2.31-2.23,2.32-1.34.02-2.4-1.08-2.38-2.46.02-1.3,1.08-2.34,2.38-2.33,1.26.01,2.25,1.1,2.23,2.46Zm-2.3,1.87c1,.02,1.84-.75,1.89-1.76.06-1.14-.74-2.08-1.8-2.13-1.04-.04-1.97.88-1.98,1.97-.01,1.01.86,1.89,1.9,1.91Z"/>
    <path d="m189.11,40.8c-.02-1.31.99-2.38,2.29-2.42,1.27-.03,2.29,1.01,2.32,2.38.03,1.38-.94,2.41-2.26,2.41-1.29,0-2.33-1.04-2.35-2.37Zm4.2.02c-.02-1.16-.87-2.03-1.94-1.99-.99.04-1.84.95-1.85,1.99,0,1.05.95,1.94,2.04,1.89.99-.04,1.77-.89,1.75-1.89Z"/>
    <path d="m187.25,41.79c0,1.33-.93,2.31-2.21,2.34-1.34.03-2.41-1.06-2.4-2.44,0-1.3,1.07-2.35,2.36-2.34,1.27,0,2.26,1.08,2.25,2.45Zm-.41,0c-.01-1.15-.86-2.04-1.92-2.01-.99.02-1.85.93-1.87,1.97-.02,1.05.93,1.95,2.01,1.91.99-.03,1.78-.87,1.77-1.87Z"/>
    <path d="m194.68,47.57c-.02,1.33-.96,2.3-2.24,2.31-1.34.01-2.4-1.09-2.37-2.47.02-1.3,1.09-2.34,2.39-2.32,1.26.02,2.24,1.11,2.22,2.47Zm-2.26,1.86c1,0,1.82-.8,1.85-1.8.03-1.14-.79-2.07-1.85-2.09-1.04-.02-1.95.94-1.94,2.02.01,1,.91,1.87,1.94,1.87Z"/>
    <path d="m200.25,24.05c-.15,0-.3-.13-.45-.2.13-.06.26-.16.39-.17,1.95-.15,3.9-.35,5.85-.42,1.11-.04,3.35,2.17,3.5,3.3.42,3.29.81,6.57,1.26,9.86.1.72-.17.9-.8.97-4,.48-8.01.96-12,1.5-.92.12-1.26-.07-1.34-1.06-.28-3.42-.7-6.83-.99-10.25-.04-.47.22-1.07.54-1.44.59-.69,1.33-1.26,2.01-1.87.11-.09.27-.12.41-.17-.04.16-.03.38-.13.48-.57.56-1.25,1.02-1.73,1.64-.35.45-.67,1.1-.63,1.64.25,3.22.62,6.44.92,9.65.07.72.26,1.02,1.11.91,3.72-.5,7.45-.94,11.18-1.34.92-.1,1.09-.45.97-1.32-.42-2.96-.77-5.94-1.13-8.91-.17-1.37-2.27-3.22-3.67-3.16-.84.03-4.34.32-5.26.35Z"/>
  </g>
  <g>
    <path class="cls-2" d="m22.02,43.32h2.89v17.57h-2.38v-14.42l-9.46,14.42h-1.23l-9.46-14.66v14.66H0v-17.57h3.06l9.41,14.58,9.55-14.58Z"/>
    <path class="cls-2" d="m28.93,53.48h11.14v2.07h-11.14v-2.07Z"/>
    <path class="cls-2" d="m58.58,52.11c.53.08,1.07.22,1.62.41.55.19,1.06.46,1.53.79s.85.75,1.14,1.24c.3.49.44,1.07.44,1.75,0,.59-.14,1.17-.42,1.73-.28.56-.73,1.05-1.36,1.47-.63.42-1.43.75-2.42,1.01-.99.26-2.18.38-3.57.38h-11.6v-17.57h11.6c1.25,0,2.33.13,3.23.38.9.26,1.64.59,2.23,1.01.59.42,1.02.9,1.3,1.46.28.55.42,1.13.42,1.72,0,.63-.12,1.18-.36,1.66-.24.48-.56.89-.95,1.24-.39.34-.84.62-1.34.83-.5.21-.99.35-1.49.43v.05Zm-11.26-5.9v4.57h8.28c.67,0,1.24-.06,1.71-.18.47-.12.85-.29,1.14-.49.3-.21.51-.45.64-.73.13-.28.19-.58.19-.9s-.06-.62-.19-.9c-.13-.28-.35-.52-.65-.72-.31-.2-.71-.36-1.2-.47-.5-.11-1.11-.17-1.83-.17h-8.09Zm8.09,11.79c.88,0,1.61-.06,2.19-.17s1.03-.27,1.37-.48c.34-.21.57-.45.71-.72.14-.27.2-.58.2-.91s-.07-.62-.2-.9c-.14-.28-.37-.53-.71-.73-.34-.21-.78-.37-1.32-.48s-1.23-.17-2.05-.17h-8.28v4.57h8.09Z"/>
    <path class="cls-2" d="m76.22,61.18c-1.86,0-3.49-.22-4.89-.66-1.4-.44-2.56-1.05-3.5-1.83s-1.64-1.7-2.12-2.77c-.47-1.07-.71-2.22-.71-3.45v-.72c0-1.24.24-2.39.71-3.45.47-1.07,1.18-1.99,2.12-2.77s2.11-1.39,3.5-1.83c1.4-.44,3.02-.66,4.89-.66s3.52.22,4.92.66,2.58,1.05,3.51,1.83c.94.78,1.64,1.7,2.11,2.77s.7,2.22.7,3.45v.72c0,1.24-.23,2.39-.7,3.45-.47,1.07-1.17,1.99-2.11,2.77-.94.78-2.11,1.39-3.51,1.83s-3.04.66-4.92.66Zm.02-2.98c1.32,0,2.46-.14,3.43-.43.97-.29,1.77-.69,2.41-1.21.63-.52,1.11-1.13,1.42-1.84.31-.71.47-1.48.47-2.31v-.58c0-.83-.16-1.6-.47-2.31-.31-.71-.79-1.32-1.42-1.84-.63-.52-1.44-.93-2.41-1.21-.97-.29-2.11-.43-3.43-.43s-2.46.14-3.44.43c-.98.29-1.79.69-2.42,1.21-.63.52-1.11,1.14-1.42,1.84-.31.71-.47,1.48-.47,2.31v.58c0,.83.16,1.6.47,2.31.31.71.79,1.32,1.42,1.84.63.52,1.44.93,2.42,1.21.98.29,2.13.43,3.44.43Z"/>
    <path class="cls-2" d="m93.04,54.63c.08.53.25,1.01.51,1.46.26.44.66.82,1.22,1.14.55.32,1.28.57,2.19.76.91.18,2.05.28,3.43.28s2.47-.07,3.33-.21c.86-.14,1.53-.31,2.02-.53.49-.22.82-.45,1-.71.18-.26.26-.51.26-.77,0-.29-.07-.56-.22-.81s-.46-.48-.94-.7c-.48-.22-1.18-.41-2.08-.59-.91-.18-2.12-.34-3.65-.48-2.09-.19-3.79-.45-5.1-.78-1.32-.33-2.34-.71-3.08-1.16-.74-.44-1.24-.94-1.5-1.49-.26-.55-.4-1.16-.4-1.82s.17-1.3.52-1.92c.34-.63.9-1.18,1.66-1.66.76-.48,1.76-.87,3-1.17,1.24-.3,2.74-.45,4.52-.45s3.29.17,4.54.49c1.24.33,2.26.78,3.06,1.36.79.58,1.4,1.26,1.8,2.06.41.79.67,1.65.78,2.56h-3.61c-.1-.53-.26-1.01-.51-1.46-.24-.44-.61-.82-1.11-1.13-.5-.31-1.15-.55-1.95-.72-.8-.17-1.81-.25-3.03-.25s-2.25.07-3.06.2c-.8.14-1.44.31-1.9.52-.47.21-.79.45-.96.71-.18.26-.26.53-.26.78,0,.31.07.59.22.84.14.26.46.49.94.71s1.18.41,2.09.59,2.14.34,3.68.48c2.07.21,3.76.47,5.07.79s2.33.7,3.07,1.14c.74.44,1.24.94,1.52,1.49.27.55.41,1.17.41,1.84s-.17,1.27-.52,1.89c-.35.62-.91,1.17-1.71,1.65-.79.48-1.84.87-3.13,1.16-1.29.29-2.89.43-4.8.43s-3.64-.17-4.99-.51c-1.36-.34-2.46-.8-3.31-1.38-.85-.58-1.48-1.28-1.9-2.07-.42-.79-.67-1.66-.75-2.59h3.63Z"/>
    <path class="cls-2" d="m116.22,54.63c.08.53.25,1.01.51,1.46.26.44.66.82,1.22,1.14.55.32,1.28.57,2.19.76.91.18,2.05.28,3.43.28s2.47-.07,3.33-.21c.86-.14,1.53-.31,2.02-.53.49-.22.82-.45,1-.71.18-.26.26-.51.26-.77,0-.29-.07-.56-.22-.81s-.46-.48-.94-.7c-.48-.22-1.18-.41-2.08-.59-.91-.18-2.12-.34-3.65-.48-2.09-.19-3.79-.45-5.1-.78-1.32-.33-2.34-.71-3.08-1.16-.74-.44-1.24-.94-1.5-1.49-.26-.55-.4-1.16-.4-1.82s.17-1.3.52-1.92c.34-.63.9-1.18,1.66-1.66.76-.48,1.76-.87,3-1.17,1.24-.3,2.74-.45,4.52-.45s3.29.17,4.54.49c1.24.33,2.26.78,3.06,1.36.79.58,1.4,1.26,1.8,2.06.41.79.67,1.65.78,2.56h-3.61c-.1-.53-.26-1.01-.51-1.46-.24-.44-.61-.82-1.11-1.13-.5-.31-1.15-.55-1.95-.72-.8-.17-1.81-.25-3.03-.25s-2.25.07-3.06.2c-.8.14-1.44.31-1.9.52-.47.21-.79.45-.96.71-.18.26-.26.53-.26.78,0,.31.07.59.22.84.14.26.46.49.94.71s1.18.41,2.09.59,2.14.34,3.68.48c2.07.21,3.76.47,5.07.79s2.33.7,3.07,1.14c.74.44,1.24.94,1.52,1.49.27.55.41,1.17.41,1.84s-.17,1.27-.52,1.89c-.35.62-.91,1.17-1.71,1.65-.79.48-1.84.87-3.13,1.16-1.29.29-2.89.43-4.8.43s-3.64-.17-4.99-.51c-1.36-.34-2.46-.8-3.31-1.38-.85-.58-1.48-1.28-1.9-2.07-.42-.79-.67-1.66-.75-2.59h3.63Z"/>
  </g>
</svg>