<svg width="99" height="83" viewBox="0 0 99 83" fill="none" xmlns="http://www.w3.org/2000/svg">
<g clip-path="url(#clip0_53_390)">
<path d="M90.5577 59.3478C88.1913 66.2202 82.1019 70.6192 82.1019 70.6192C82.1019 70.6192 76.0114 66.2261 73.6441 59.3478C82.3316 56.0527 90.5577 59.3478 90.5577 59.3478Z" fill="#502D9B"/>
<path d="M14.1545 42.4695C15.2687 42.0272 16.1571 41.3784 16.8157 40.5233C17.6932 39.3868 18.1409 37.8968 18.1409 36.0987C18.1409 35.0965 17.9742 34.1456 17.6548 33.2668C17.3284 32.381 16.8354 31.5842 16.1965 30.9098C15.5507 30.2294 14.7254 29.6893 13.7463 29.2973C12.7741 28.9112 11.6294 28.7197 10.3437 28.7197H0.918614V51.9231H7.71897V44.7485L10.5971 51.9162H17.7179H17.9289L14.1545 42.4695ZM10.5024 38.0005C10.0035 38.3915 9.24922 38.585 8.25042 38.585H7.72587V34.2433H8.25042C9.24922 34.2433 10.0035 34.4428 10.5024 34.8279C10.9629 35.1873 11.1867 35.7086 11.1867 36.4147C11.1877 37.1197 10.9629 37.641 10.5024 38.0005ZM7.72587 17.468H10.5468C13.1449 17.468 15.178 16.761 16.5929 15.3747C18.0068 13.9804 18.7226 12.0155 18.7226 9.53012C18.7226 7.03886 18.0058 5.0729 16.5929 3.68557C15.178 2.29824 13.1508 1.59224 10.5468 1.59224H0.918614V24.7957H7.71897V17.468H7.72587ZM7.72587 7.32718H9.06977C11.3661 7.32718 11.66 8.50221 11.66 9.53012C11.66 10.5511 11.3661 11.7271 9.06977 11.7271H7.72587V7.32718ZM26.01 24.7897L27.3214 20.9487H34.6778L35.9892 24.7897H43.2628L34.4925 1.58532H27.5058L18.7413 24.7897H26.01ZM30.9991 10.3517L32.7848 15.4764H29.2214L30.9991 10.3517ZM26.01 51.9172L27.3214 48.0761H34.6778L35.9892 51.9172H43.2628L34.4925 28.7138H27.5058L18.7413 51.9172H26.01ZM30.9991 37.4801L32.7848 42.6048H29.2214L30.9991 37.4801ZM80.2256 51.9172L81.5379 48.0761H88.8944L90.2057 51.9172H97.4794L88.709 28.7138H81.7223L72.9519 51.9172H80.2256ZM85.2166 37.4801L87.0013 42.6048H83.4379L85.2166 37.4801ZM53.4087 12.3305L63.1206 24.7897H69.6134V1.58532H62.8386V14.0446L53.1277 1.58532H46.6014V24.7897H53.4077L53.4087 12.3305ZM76.4966 21.7317C77.6028 22.8238 78.9408 23.6907 80.475 24.3069C82.0043 24.923 83.713 25.2321 85.543 25.2321C87.3523 25.2321 89.0551 24.923 90.5962 24.3069C92.1383 23.6907 93.4881 22.8238 94.6013 21.7317C95.7144 20.6406 96.5979 19.3431 97.224 17.8719C97.8442 16.4016 98.1646 14.796 98.1646 13.1076C98.1646 11.4112 97.8511 9.80561 97.224 8.33534C96.5979 6.86507 95.7144 5.5676 94.6013 4.47551C93.4881 3.38441 92.1392 2.51745 90.5962 1.9013C89.0541 1.28416 87.3582 0.975098 85.543 0.975098C83.7071 0.975098 82.0043 1.29009 80.475 1.9013C78.9398 2.51745 77.6028 3.38441 76.4966 4.47551C75.3903 5.57352 74.5127 6.87198 73.8926 8.32843C73.2714 9.79278 72.9529 11.3983 72.9529 13.1006C72.9529 14.803 73.2655 16.4085 73.8926 17.8659C74.5127 19.3372 75.3903 20.6337 76.4966 21.7317ZM80.4119 10.9165C80.7136 10.249 81.1159 9.65849 81.6217 9.16971C82.1275 8.68094 82.7221 8.28893 83.3935 8.02035C84.066 7.74388 84.7887 7.6086 85.544 7.6086C86.2992 7.6086 87.021 7.75079 87.6934 8.02035C88.3649 8.28893 88.9663 8.68193 89.484 9.17662C89.9967 9.66441 90.4059 10.2549 90.7056 10.9234C91.0004 11.5849 91.1473 12.3235 91.1473 13.1135C91.1473 13.9044 91.0004 14.642 90.7056 15.3036C90.4049 15.9721 89.9957 16.5625 89.484 17.0513C88.9663 17.546 88.3639 17.9311 87.6934 18.2076C86.3505 18.7536 84.7374 18.7536 83.3945 18.2076C82.7231 17.938 82.1285 17.546 81.6227 17.0582C81.1169 16.5695 80.7146 15.979 80.4129 15.3105C80.1191 14.6489 79.9722 13.9172 79.9722 13.1204C79.9633 12.3107 80.1181 11.5721 80.4119 10.9165ZM62.1021 28.7138L58.1168 39.4648L54.1117 28.7138H47.6189L44.0743 51.9172H50.5099L52.1673 40.7879L56.4652 51.9172H59.4784L64.0406 40.7169L65.7039 51.9172H72.1395L68.5948 28.7138H62.1021ZM41.8361 70.3425C41.4457 69.3215 40.8886 68.416 40.1787 67.6517C39.4678 66.8816 38.6238 66.2713 37.6703 65.8339C37.127 65.5831 36.5384 65.4093 35.9301 65.3007L41.0671 57.7993H31.1332L25.7409 65.6473C24.8446 66.9438 24.0331 68.2225 23.5332 69.5328C22.9584 71.0485 22.6636 72.4872 22.6636 73.8103C22.6636 74.9982 22.8933 76.1347 23.3479 77.1952C23.8024 78.2537 24.4739 79.1917 25.3376 79.9817C26.1885 80.7726 27.2376 81.4016 28.4533 81.8568C29.6621 82.3061 31.0435 82.5371 32.5599 82.5371C34.0577 82.5371 35.4321 82.3061 36.635 81.8568C37.8448 81.4006 38.8929 80.7657 39.7508 79.9619C40.6076 79.1592 41.28 78.2093 41.7405 77.1241C42.195 76.0518 42.4248 74.8698 42.4248 73.6237C42.4248 72.4684 42.2266 71.3635 41.8361 70.3425ZM35.3306 74.4847C35.1708 74.851 34.946 75.172 34.6778 75.4544C34.3968 75.7368 34.0823 75.955 33.7126 76.1159C33.0017 76.4299 32.1005 76.4368 31.3906 76.1159C31.0257 75.955 30.7063 75.7299 30.4312 75.4544C30.1561 75.1779 29.9313 74.857 29.7716 74.4847C29.6118 74.1253 29.5349 73.7333 29.5349 73.3156C29.5349 72.8979 29.6187 72.5069 29.7716 72.1465C29.9313 71.7802 30.1561 71.4533 30.4312 71.1768C30.6994 70.9014 31.0257 70.6762 31.3906 70.5153C31.7485 70.3553 32.1399 70.2714 32.555 70.2714C32.9711 70.2714 33.3606 70.3553 33.7205 70.5153C34.0843 70.6762 34.4037 70.8944 34.6798 71.1768C34.9549 71.4533 35.1787 71.7802 35.3385 72.1465C35.4992 72.5059 35.5751 72.8979 35.5751 73.3156C35.5672 73.7343 35.4834 74.1253 35.3306 74.4847ZM14.2265 65.828L14.8595 64.884L17.9624 60.254V57.8012H0.87523V64.2619H5.55177H8.02759L5.32795 68.5908L7.71404 71.005C7.93885 70.8135 8.1814 70.6456 8.46339 70.5173C8.82131 70.3573 9.21176 70.2734 9.62784 70.2734C10.0439 70.2734 10.4334 70.3573 10.7923 70.5173C11.1571 70.6782 11.4766 70.8964 11.7526 71.1788C12.0268 71.4553 12.2516 71.7821 12.4113 72.1485C12.571 72.5079 12.6479 72.8999 12.6479 73.3176C12.6479 73.7353 12.571 74.1332 12.4113 74.4867C12.2516 74.853 12.0268 75.1739 11.7586 75.4563C11.4776 75.7387 11.163 75.957 10.7992 76.1179C10.0883 76.4319 9.18612 76.4388 8.4772 76.1179C8.11238 75.957 7.79292 75.7318 7.51684 75.4563C7.24274 75.1799 7.01793 74.8589 6.8582 74.4867C6.69847 74.1273 6.62157 73.7353 6.62157 73.3176C6.62157 73.1892 6.63439 73.0609 6.6472 72.9325H0.279694L0.330965 74.1332C0.862412 78.9883 4.54113 82.3663 9.26796 82.5273C9.38923 82.5332 9.50361 82.547 9.62587 82.547C12.8372 82.547 15.5881 80.9997 17.2702 78.6171C17.7879 77.9298 18.204 77.1843 18.4919 76.3628C18.7216 75.6943 18.8498 74.9695 18.908 74.224C18.9336 73.9989 18.9523 73.7678 18.9661 73.5368C18.9661 73.5239 18.9661 73.5121 18.9661 73.4924V73.4795C18.9592 70.2082 17.2002 67.3753 14.2265 65.828ZM58.8405 56.6381C51.7394 56.6381 45.9822 62.4372 45.9822 69.591C45.9822 76.7459 51.7394 82.545 58.8405 82.545C65.9416 82.545 71.6987 76.7459 71.6987 69.591C71.6928 62.4372 65.9416 56.6381 58.8405 56.6381ZM52.5647 72.3213C54.3168 67.2222 58.8395 63.9588 58.8395 63.9588C58.8395 63.9588 63.3622 67.2222 65.1153 72.3144C58.661 74.7681 52.5647 72.3213 52.5647 72.3213Z" fill="#0FBEF0"/>
</g>
<defs>
<clipPath id="clip0_53_390">
<rect width="97.8839" height="81.5699" fill="white" transform="translate(0.279694 0.975098)"/>
</clipPath>
</defs>
</svg>

