<svg width="100" height="100" viewBox="0 0 100 100" fill="none" xmlns="http://www.w3.org/2000/svg">
<g filter="url(#filter0_d_181_1115)">
<path d="M29.7501 91.6715L60.4715 89.8405L87.5 61.4787C87.5 61.4787 83.9732 57.5183 78.5699 59.0871C73.1693 60.6553 60.3728 72.031 60.3728 72.031" stroke="#0074E1" stroke-width="5.6693" stroke-linecap="round" stroke-linejoin="round"/>
<path d="M39.0871 78.7339L60.9468 77.7087C60.9468 77.7087 61.8246 72.5591 57.8374 70.5908C53.8508 68.6248 43.6184 69.4962 43.6184 69.4962C43.6184 69.4962 37.1824 64.5853 27.5224 65.8823C17.8607 67.1766 13 75.6118 13 75.6118" stroke="#0074E1" stroke-width="5.6693" stroke-linecap="round" stroke-linejoin="round"/>
<path d="M32.1205 39.4088C32.1205 28.7459 40.7644 20.1025 51.4267 20.1025C62.0906 20.1025 70.7334 28.7464 70.7334 39.4088C70.7334 50.0711 62.0901 58.7155 51.4267 58.7155C48.9512 58.7155 46.5852 58.2499 44.4093 57.4009" stroke="#80B9F0" stroke-width="5.6693" stroke-linecap="round" stroke-linejoin="round"/>
<path d="M18.6057 39.4087C18.6057 21.282 33.3006 6.58716 51.4272 6.58716C69.5534 6.58716 84.2482 21.282 84.2482 39.4087C84.2482 41.9813 83.9524 44.4846 83.3923 46.8875" stroke="#80B9F0" stroke-width="5.6693" stroke-linecap="round" stroke-linejoin="round"/>
<path d="M32.1205 39.4084H38.0139L25.5222 54.1156L13.0289 39.4084H18.6057" stroke="#80B9F0" stroke-width="5.6693" stroke-linecap="round" stroke-linejoin="round"/>
<path d="M54.7806 31.7398L54.0571 31.4931C51.4658 30.6121 48.4985 31.6277 47.4275 33.762C46.3578 35.8957 47.5915 38.3402 50.1815 39.2213L52.4687 40.0003C55.0607 40.8814 56.2931 43.3254 55.2228 45.4596C54.1537 47.5934 51.1864 48.609 48.5938 47.7285H48.5932L47.1772 47.2458" stroke="#80B9F0" stroke-width="4.5" stroke-linecap="round" stroke-linejoin="round"/>
<path d="M51.0599 48.0327V51.244" stroke="#80B9F0" stroke-width="4.5" stroke-linecap="round" stroke-linejoin="round"/>
<path d="M51.0599 28.106V31.1497" stroke="#80B9F0" stroke-width="4.5" stroke-linecap="round" stroke-linejoin="round"/>
</g>
<defs>
<filter id="filter0_d_181_1115" x="10.1649" y="3.7525" width="84.1698" height="94.7537" filterUnits="userSpaceOnUse" color-interpolation-filters="sRGB">
<feFlood flood-opacity="0" result="BackgroundImageFix"/>
<feColorMatrix in="SourceAlpha" type="matrix" values="0 0 0 0 0 0 0 0 0 0 0 0 0 0 0 0 0 0 127 0" result="hardAlpha"/>
<feOffset dx="4" dy="4"/>
<feColorMatrix type="matrix" values="0 0 0 0 0.898039 0 0 0 0 0.905882 0 0 0 0 0.921569 0 0 0 1 0"/>
<feBlend mode="normal" in2="BackgroundImageFix" result="effect1_dropShadow_181_1115"/>
<feBlend mode="normal" in="SourceGraphic" in2="effect1_dropShadow_181_1115" result="shape"/>
</filter>
</defs>
</svg>
