<svg width="100" height="100" viewBox="0 0 100 100" fill="none" xmlns="http://www.w3.org/2000/svg">
<g filter="url(#filter0_d_181_1169)">
<path d="M56.6932 34.1516C56.6932 37.9368 53.6243 41.0053 49.8395 41.0053C46.0543 41.0053 42.9858 37.9368 42.9858 34.1516C42.9858 30.3664 46.0543 27.2979 49.8395 27.2979C53.6243 27.2979 56.6932 30.3664 56.6932 34.1516Z" stroke="#0074E1" stroke-width="5.6693" stroke-linecap="round" stroke-linejoin="round"/>
<path d="M40.9132 55.5034C40.9132 60.5138 40.9132 63.0176 40.9132 63.0176" stroke="#0074E1" stroke-width="5.6693" stroke-linecap="round" stroke-linejoin="round"/>
<path d="M66.2995 63.0174C66.2995 63.0174 66.2995 56.8089 66.2995 51.7986C66.2995 46.7882 56.3547 45.665 56.3547 45.665L49.8395 52.1802L43.3243 45.665C43.3243 45.665 33.379 46.7882 33.379 51.7986C33.379 56.8089 33.379 63.0174 33.379 63.0174" stroke="#0074E1" stroke-width="5.6693" stroke-linecap="round" stroke-linejoin="round"/>
<path d="M58.7653 55.5034C58.7653 60.5138 58.7653 63.0176 58.7653 63.0176" stroke="#0074E1" stroke-width="5.6693" stroke-linecap="round" stroke-linejoin="round"/>
<path d="M57.2945 11.7948C57.2945 15.9124 53.9568 19.2497 49.8396 19.2497C45.722 19.2497 42.3846 15.912 42.3846 11.7948C42.3846 7.6776 45.7224 4.33984 49.8396 4.33984C53.9568 4.33984 57.2945 7.6776 57.2945 11.7948Z" stroke="#80B9F0" stroke-width="5.6693" stroke-linecap="round" stroke-linejoin="round"/>
<path d="M57.2945 83.8578C57.2945 87.975 53.9568 91.3127 49.8396 91.3127C45.722 91.3127 42.3846 87.975 42.3846 83.8578C42.3846 79.7401 45.7224 76.4028 49.8396 76.4028C53.9568 76.4024 57.2945 79.7401 57.2945 83.8578Z" stroke="#80B9F0" stroke-width="5.6693" stroke-linecap="round" stroke-linejoin="round"/>
<path d="M22.3629 23.3547C25.9286 25.4137 27.1502 29.9727 25.0916 33.5383C23.033 37.1044 18.4741 38.326 14.908 36.2674C11.3424 34.2084 10.1207 29.649 12.1793 26.0834C14.2384 22.5177 18.7973 21.2957 22.3629 23.3547Z" stroke="#80B9F0" stroke-width="5.6693" stroke-linecap="round" stroke-linejoin="round"/>
<path d="M84.7711 59.3858C88.3372 61.4444 89.5584 66.0038 87.4998 69.5695C85.4412 73.1355 80.8823 74.3572 77.3162 72.2986C73.7506 70.2395 72.5289 65.6806 74.5875 62.1145C76.6457 58.5485 81.2055 57.3272 84.7711 59.3858Z" stroke="#80B9F0" stroke-width="5.6693" stroke-linecap="round" stroke-linejoin="round"/>
<path d="M14.9084 59.3857C18.4745 57.3271 23.0335 58.5488 25.0921 62.1148C27.1507 65.6805 25.929 70.2394 22.3634 72.2985C18.7973 74.357 14.2384 73.1354 12.1793 69.5693C10.1207 66.0037 11.3428 61.4443 14.9084 59.3857Z" stroke="#80B9F0" stroke-width="5.6693" stroke-linecap="round" stroke-linejoin="round"/>
<path d="M77.3159 23.3545C80.8819 21.2959 85.4409 22.5175 87.4995 26.0836C89.5585 29.6492 88.3369 34.2082 84.7712 36.2672C81.2052 38.3258 76.6458 37.1042 74.5872 33.5381C72.5286 29.9725 73.7507 25.4131 77.3159 23.3545Z" stroke="#80B9F0" stroke-width="5.6693" stroke-linecap="round" stroke-linejoin="round"/>
<path d="M56.2955 15.5225L74.5894 26.0847" stroke="#80B9F0" stroke-width="5.6693" stroke-linecap="round" stroke-linejoin="round"/>
<path d="M24.9611 69.7861L43.2601 80.351" stroke="#80B9F0" stroke-width="5.6693" stroke-linecap="round" stroke-linejoin="round"/>
<path d="M24.964 26.0833L43.2578 15.5215" stroke="#80B9F0" stroke-width="5.6693" stroke-linecap="round" stroke-linejoin="round"/>
<path d="M56.2902 80.3514L74.5892 69.7861" stroke="#80B9F0" stroke-width="5.6693" stroke-linecap="round" stroke-linejoin="round"/>
<path d="M18.4436 58.4971V37.373" stroke="#80B9F0" stroke-width="5.6693" stroke-linecap="round" stroke-linejoin="round"/>
<path d="M81.105 58.5022V37.3721" stroke="#80B9F0" stroke-width="5.6693" stroke-linecap="round" stroke-linejoin="round"/>
</g>
<defs>
<filter id="filter0_d_181_1169" x="8.34424" y="1.5052" width="86.9908" height="96.6422" filterUnits="userSpaceOnUse" color-interpolation-filters="sRGB">
<feFlood flood-opacity="0" result="BackgroundImageFix"/>
<feColorMatrix in="SourceAlpha" type="matrix" values="0 0 0 0 0 0 0 0 0 0 0 0 0 0 0 0 0 0 127 0" result="hardAlpha"/>
<feOffset dx="4" dy="4"/>
<feColorMatrix type="matrix" values="0 0 0 0 0.898039 0 0 0 0 0.905882 0 0 0 0 0.921569 0 0 0 1 0"/>
<feBlend mode="normal" in2="BackgroundImageFix" result="effect1_dropShadow_181_1169"/>
<feBlend mode="normal" in="SourceGraphic" in2="effect1_dropShadow_181_1169" result="shape"/>
</filter>
</defs>
</svg>
