<svg width="100" height="100" viewBox="0 0 100 100" fill="none" xmlns="http://www.w3.org/2000/svg">
<g filter="url(#filter0_d_181_1138)">
<path d="M8.83826 38.836C10.3864 39.7297 17.3645 45.7557 17.9004 46.6844C18.4362 47.6132 16.2013 50.4871 17.7382 52.0246C19.2751 53.5621 22.7552 54.9374 22.2693 58.5785C21.7834 62.2196 21.3405 67.3264 22.2693 68.9351C23.198 70.5438 26.2341 73.3045 26.2341 70.3918C26.2341 67.479 26.4027 65.622 27.367 64.5662C29.0661 62.7055 36.1059 55.9895 36.2675 54.0474C36.4291 52.1054 35.6205 51.7816 33.6785 50.5685C31.7365 49.3553 30.442 48.384 29.2283 46.6036C28.0146 44.8232 27.1241 42.3963 24.5351 42.6387C21.946 42.8811 19.9232 42.8811 19.8424 41.0205C19.7616 39.1598 19.6802 37.9461 17.4958 37.8647C15.3113 37.7834 15.3921 35.6803 16.2821 35.0327C17.172 34.3852 20.247 32.3629 22.0268 30.1779C23.8067 27.9929 26.7339 26.8101 29.5515 26.5145C31.6551 26.2939 33.435 26.5363 34.325 25.0802C35.2149 23.624 34.2442 22.9765 33.2729 22.1674C32.3016 21.3582 30.1979 18.2025 30.2793 17.3939" stroke="#FF9900" stroke-width="2.83465" stroke-linecap="round" stroke-linejoin="round"/>
<path d="M38.6433 16.7288C38.6433 18.5093 39.3716 22.2312 42.3652 22.2312C45.3588 22.2312 48.1095 20.2083 48.2711 18.9946" stroke="#FF9900" stroke-width="2.83465" stroke-linecap="round" stroke-linejoin="round"/>
<path d="M38.7055 82.238C20.1385 82.238 5.08655 67.1861 5.08655 48.619C5.08655 30.0514 20.1385 15 38.7055 15C45.0585 15 50.9994 16.7623 56.0648 19.8245" stroke="#FF9900" stroke-width="5.6693" stroke-linecap="round" stroke-linejoin="round"/>
<path d="M70.0684 35.2267C70.0684 39.4823 66.6186 42.9326 62.3624 42.9326C58.1062 42.9326 54.6565 39.4823 54.6565 35.2267C54.6565 30.971 58.1062 27.5207 62.3624 27.5207C66.6186 27.5207 70.0684 30.971 70.0684 35.2267Z" stroke="#0074E1" stroke-width="5.6693" stroke-linecap="round" stroke-linejoin="round"/>
<path d="M76.7839 53.0499C75.2358 51.3938 73.7706 50.9834 70.843 50.9834C67.9153 50.9834 56.8947 50.9834 54.1393 50.9834C51.3838 50.9834 45.5291 54.7718 45.5291 59.5937C45.5291 64.4155 45.5291 67.1475 45.5291 69.5585C45.5291 71.9694 47.7677 74.2937 50.2648 74.2937C52.7618 74.2937 59.7357 74.2937 59.7357 74.2937" stroke="#0074E1" stroke-width="5.6693" stroke-linecap="round" stroke-linejoin="round"/>
<path d="M53.5364 60.087C53.5364 60.087 53.5364 62.7563 53.5364 63.8754C53.5364 64.9945 53.8809 65.7265 55.3875 65.7265C56.8941 65.7265 62.3183 65.7265 62.3183 65.7265" stroke="#0074E1" stroke-width="5.6693" stroke-linecap="round" stroke-linejoin="round"/>
<path d="M58.0138 82.2376L64.5576 59.9375H92.7987L86.2549 82.2376H46.9927" stroke="#0074E1" stroke-width="5.6693" stroke-linecap="round" stroke-linejoin="round"/>
</g>
<defs>
<filter id="filter0_d_181_1138" x="2.25195" y="12.1653" width="97.3813" height="76.9077" filterUnits="userSpaceOnUse" color-interpolation-filters="sRGB">
<feFlood flood-opacity="0" result="BackgroundImageFix"/>
<feColorMatrix in="SourceAlpha" type="matrix" values="0 0 0 0 0 0 0 0 0 0 0 0 0 0 0 0 0 0 127 0" result="hardAlpha"/>
<feOffset dx="4" dy="4"/>
<feColorMatrix type="matrix" values="0 0 0 0 0.898039 0 0 0 0 0.905882 0 0 0 0 0.921569 0 0 0 1 0"/>
<feBlend mode="normal" in2="BackgroundImageFix" result="effect1_dropShadow_181_1138"/>
<feBlend mode="normal" in="SourceGraphic" in2="effect1_dropShadow_181_1138" result="shape"/>
</filter>
</defs>
</svg>
