<svg width="100" height="100" viewBox="0 0 100 100" fill="none" xmlns="http://www.w3.org/2000/svg">
<g filter="url(#filter0_d_181_1090)">
<path d="M56.6548 38.8187C56.6548 42.3786 53.7687 45.2647 50.2096 45.2647C46.6497 45.2647 43.7635 42.379 43.7635 38.8187C43.7635 35.2588 46.6497 32.373 50.2096 32.373C53.7687 32.373 56.6548 35.2588 56.6548 38.8187Z" stroke="#FF9900" stroke-width="5.6693" stroke-linecap="round" stroke-linejoin="round"/>
<path d="M56.9011 60.137V89.9487" stroke="#FF9900" stroke-width="5.6693" stroke-linecap="round" stroke-linejoin="round"/>
<path d="M43.5171 75.6517C40.6322 75.6517 37.4237 73.3642 37.4237 69.4448C37.4237 65.5254 37.4237 61.6133 37.4237 57.9007C37.4237 54.3913 40.7324 51.9034 44.0289 51.9034C47.3254 51.9034 48.0327 51.9034 50.1946 51.9034H50.2257C52.3875 51.9034 53.0948 51.9034 56.3909 51.9034C59.6867 51.9034 62.9957 54.3913 62.9957 57.9007C62.9957 61.6133 62.9957 65.5254 62.9957 69.4448C62.9957 73.3646 59.7872 75.6517 56.9019 75.6517" stroke="#FF9900" stroke-width="5.6693" stroke-linecap="round" stroke-linejoin="round"/>
<path d="M43.5171 60.137V89.9487" stroke="#FF9900" stroke-width="5.6693" stroke-linecap="round" stroke-linejoin="round"/>
<path d="M50.2087 72.574V89.9998" stroke="#FF9900" stroke-width="5.6693" stroke-linecap="round" stroke-linejoin="round"/>
<path d="M12.7944 23.3852L14.2183 55.0287C14.5196 59.4995 19.9595 63.4266 28.1711 65.9572L27.0271 34.7713C18.3579 32.115 12.7944 28.0018 12.7944 23.3852ZM12.7944 23.3852C12.7944 15.3739 29.5457 8.87939 50.2091 8.87939C70.872 8.87939 87.6241 15.3739 87.6241 23.3852M87.6241 23.3852C87.6241 28.0018 82.0607 32.115 73.391 34.7713L72.2474 65.9572C80.4586 63.4266 85.8989 59.4995 86.1998 55.0287L87.6241 23.3852Z" stroke="#0074E1" stroke-width="5.6693" stroke-linecap="round" stroke-linejoin="round"/>
<path d="M24.8015 26.8955L35.152 17.09L42.3109 23.9383" stroke="#0074E1" stroke-width="5.6693" stroke-linecap="round" stroke-linejoin="round"/>
<path d="M38.9554 27.1175L50.0265 16.6293L57.6848 23.9543" stroke="#0074E1" stroke-width="5.6693" stroke-linecap="round" stroke-linejoin="round"/>
<path d="M72.5 21.9997C72.5 23.6567 71.1569 24.9999 69.4997 24.9999C67.8431 24.9999 66.5 23.6567 66.5 21.9997C66.5 20.3431 67.8431 18.9999 69.4997 18.9999C71.1569 18.9999 72.5 20.3428 72.5 21.9997Z" fill="#0074E1" stroke="#0074E1" stroke-width="5.6693" stroke-linecap="round" stroke-linejoin="round"/>
</g>
<defs>
<filter id="filter0_d_181_1090" x="9.95978" y="6.04474" width="84.499" height="90.7897" filterUnits="userSpaceOnUse" color-interpolation-filters="sRGB">
<feFlood flood-opacity="0" result="BackgroundImageFix"/>
<feColorMatrix in="SourceAlpha" type="matrix" values="0 0 0 0 0 0 0 0 0 0 0 0 0 0 0 0 0 0 127 0" result="hardAlpha"/>
<feOffset dx="4" dy="4"/>
<feColorMatrix type="matrix" values="0 0 0 0 0.898039 0 0 0 0 0.905882 0 0 0 0 0.921569 0 0 0 1 0"/>
<feBlend mode="normal" in2="BackgroundImageFix" result="effect1_dropShadow_181_1090"/>
<feBlend mode="normal" in="SourceGraphic" in2="effect1_dropShadow_181_1090" result="shape"/>
</filter>
</defs>
</svg>
