<svg width="100" height="100" viewBox="0 0 100 100" fill="none" xmlns="http://www.w3.org/2000/svg">
<g filter="url(#filter0_d_181_993)">
<path d="M41.0252 85.7217H31.7772C27.0877 85.7217 23.2859 81.9199 23.2859 77.2304C23.2859 72.5409 27.0877 68.7391 31.7772 68.7391H59.3109C64.0004 68.7391 67.8022 64.9374 67.8022 60.2478C67.8022 55.5583 64.0004 51.7565 59.3109 51.7565H54.9211" stroke="#0074E1" stroke-width="5.6693" stroke-linecap="round" stroke-linejoin="round"/>
<path d="M26.8826 51.756H40.3705" stroke="#0074E1" stroke-width="5.6693" stroke-linecap="round" stroke-linejoin="round"/>
<path d="M55.5815 85.7218H77.2867" stroke="#0074E1" stroke-width="5.6693" stroke-linecap="round" stroke-linejoin="round"/>
<path d="M54.9274 51.756C54.9274 55.776 51.6687 59.0342 47.6493 59.0342C43.6298 59.0342 40.3711 55.7754 40.3711 51.756C40.3711 47.7366 43.6298 44.4778 47.6493 44.4778C51.6687 44.4778 54.9274 47.7366 54.9274 51.756Z" stroke="#0074E1" stroke-width="5.6693" stroke-linecap="round" stroke-linejoin="round"/>
<path d="M55.5816 85.7218C55.5816 89.7418 52.3229 92.9999 48.3034 92.9999C44.284 92.9999 41.0253 89.7412 41.0253 85.7218C41.0253 81.7023 44.284 78.4436 48.3034 78.4436C52.3234 78.4436 55.5816 81.7023 55.5816 85.7218Z" stroke="#0074E1" stroke-width="5.6693" stroke-linecap="round" stroke-linejoin="round"/>
<path d="M91.8431 85.7218C91.8431 89.7418 88.5844 92.9999 84.565 92.9999C80.5455 92.9999 77.2874 89.7412 77.2874 85.7218C77.2874 81.7023 80.5461 78.4436 84.565 78.4436C88.5844 78.4436 91.8431 81.7023 91.8431 85.7218Z" stroke="#0074E1" stroke-width="5.6693" stroke-linecap="round" stroke-linejoin="round"/>
<path d="M6.16376 21.0417C6.16376 14.4108 11.5393 9.03522 18.1702 9.03522C24.8011 9.03522 30.1761 14.4108 30.1761 21.0417C30.1761 32.0207 19.9366 43.6004 18.1428 43.6004C16.3491 43.6004 6.16376 32.0202 6.16376 21.0417ZM18.1702 12.1538C12.8208 12.1538 8.48401 16.4906 8.48401 21.84C8.48401 27.1893 12.8208 31.5261 18.1702 31.5261C23.5196 31.5261 27.8564 27.1893 27.8564 21.84C27.8564 16.4906 23.5196 12.1538 18.1702 12.1538Z" fill="#FF9900" stroke="#FF9900" stroke-width="2.83465" stroke-linecap="round" stroke-linejoin="round"/>
</g>
<defs>
<filter id="filter0_d_181_993" x="4.74646" y="7.61789" width="93.9313" height="92.2167" filterUnits="userSpaceOnUse" color-interpolation-filters="sRGB">
<feFlood flood-opacity="0" result="BackgroundImageFix"/>
<feColorMatrix in="SourceAlpha" type="matrix" values="0 0 0 0 0 0 0 0 0 0 0 0 0 0 0 0 0 0 127 0" result="hardAlpha"/>
<feOffset dx="4" dy="4"/>
<feColorMatrix type="matrix" values="0 0 0 0 0.898039 0 0 0 0 0.905882 0 0 0 0 0.921569 0 0 0 1 0"/>
<feBlend mode="normal" in2="BackgroundImageFix" result="effect1_dropShadow_181_993"/>
<feBlend mode="normal" in="SourceGraphic" in2="effect1_dropShadow_181_993" result="shape"/>
</filter>
</defs>
</svg>
