<svg width="184" height="45" viewBox="0 0 184 45" fill="none" xmlns="http://www.w3.org/2000/svg">
<path d="M79.1119 17.0826C80.0252 16.5182 81.0414 16.2435 82.2188 16.2435C83.1531 16.2435 84.0061 16.4198 84.7541 16.7665C85.5168 17.1186 86.2285 17.6576 86.8715 18.3697C87.3613 18.9039 87.9051 19.1728 88.4924 19.1728C88.8877 19.1728 89.2651 19.0542 89.6141 18.8202C90.4088 18.2463 90.5705 17.5951 90.5705 17.1467C90.5705 16.6681 90.4031 16.2233 90.0855 15.8607C88.0914 13.3872 85.438 12.1213 82.2193 12.1213C80.2924 12.1213 78.5256 12.5973 76.9693 13.5359C75.4166 14.4783 74.1867 15.7924 73.3123 17.4421C72.442 19.0759 72 20.9485 72 23.007C72 25.0273 72.4619 26.8803 73.3732 28.5146C74.2807 30.158 75.5531 31.4747 77.1535 32.4266C78.755 33.3754 80.5785 33.8561 82.5747 33.8561C85.3945 33.8561 87.7696 32.9698 89.6357 31.2222C90.0341 30.8584 90.2482 30.3788 90.2482 29.8414C90.2482 29.4306 90.1144 28.8233 89.475 28.2653C89.0693 27.9376 88.6378 27.7814 88.1691 27.7814C87.6452 27.7814 87.1487 27.9789 86.6931 28.3685C85.648 29.2918 84.3037 29.736 82.5742 29.736C81.338 29.736 80.2305 29.4454 79.282 28.872C78.3366 28.2986 77.5907 27.4971 77.0669 26.4896C76.5336 25.4651 76.2633 24.294 76.2633 23.007C76.2633 21.694 76.5194 20.4969 77.0249 19.4486C77.5146 18.4364 78.2169 17.6401 79.1119 17.0826ZM109.087 13.5471C107.455 12.601 105.615 12.1218 103.619 12.1218C101.621 12.1218 99.7815 12.6015 98.1522 13.5476C96.5161 14.4953 95.2117 15.8178 94.2763 17.4781C93.3383 19.131 92.8622 20.9925 92.8622 23.0075C92.8622 25.0209 93.3242 26.8734 94.2359 28.5141C95.1492 30.1596 96.4158 31.4758 98.001 32.4256C99.5862 33.3748 101.379 33.8566 103.331 33.8566C105.003 33.8566 106.56 33.4929 107.957 32.7755C108.709 32.3896 109.389 31.9147 110.004 31.3672C110.004 31.3842 110.004 31.5075 110.004 31.5075C110.004 32.1285 110.223 32.6696 110.636 33.0731C111.059 33.4754 111.58 33.6761 112.191 33.6761C112.809 33.6761 113.35 33.4558 113.754 33.0397C114.16 32.6326 114.378 32.1005 114.378 31.5075V23.0075C114.378 20.9951 113.901 19.1342 112.962 17.4765C112.02 15.813 110.716 14.491 109.087 13.5471ZM109.226 26.4726C108.654 27.5034 107.898 28.287 106.914 28.8688C105.928 29.4533 104.85 29.7371 103.619 29.7371C102.404 29.7371 101.288 29.4443 100.303 28.8672C99.307 28.2843 98.5453 27.5008 97.9748 26.4721C97.4126 25.4498 97.1265 24.2839 97.1265 23.008C97.1265 21.7316 97.4121 20.5652 97.9758 19.5402C98.5469 18.511 99.3101 17.7206 100.307 17.1276C101.29 16.541 102.404 16.2435 103.618 16.2435C104.848 16.2435 105.924 16.532 106.908 17.125C107.894 17.7179 108.652 18.5084 109.226 19.5424C109.791 20.5694 110.078 21.7363 110.078 23.0075C110.078 24.2781 109.791 25.4439 109.226 26.4726ZM131.878 23.1176C130.655 22.0302 128.733 21.2768 126.003 20.8146C123.799 20.4461 122.812 20.003 122.371 19.6964C121.849 19.3306 121.605 18.8769 121.605 18.2685C121.605 17.9191 121.692 17.3955 122.439 16.8825C123.097 16.4346 124.011 16.2069 125.154 16.2069C126.968 16.2069 128.346 16.7803 129.367 17.9604C129.868 18.5004 130.5 18.7747 131.215 18.7747C131.667 18.7747 132.05 18.664 132.354 18.4448C132.921 18.0938 133.257 17.5072 133.257 16.8232C133.257 16.4309 133.126 16.0237 132.857 15.578C132.843 15.5557 132.829 15.534 132.813 15.5128C132.015 14.4439 130.96 13.6011 129.678 13.0076C128.404 12.4199 126.907 12.1218 125.228 12.1218C123.036 12.1218 121.175 12.6581 119.698 13.7159C118.133 14.8325 117.338 16.4256 117.338 18.4496C117.338 20.0464 118.021 21.416 119.368 22.5204C120.631 23.5576 122.523 24.2898 124.992 24.6953C126.693 24.968 127.923 25.3619 128.652 25.8675C129.473 26.4361 129.568 27.0058 129.568 27.3848C129.55 28.0482 129.248 28.5718 128.618 29.0102C127.919 29.492 126.802 29.7376 125.301 29.7376C124.251 29.7376 123.29 29.5719 122.443 29.2458C121.643 28.943 120.999 28.5046 120.471 27.9053C119.751 27.0878 118.639 27.118 117.98 27.6194C117.245 28.2224 117.095 28.8847 117.095 29.3374C117.095 29.7948 117.276 30.2459 117.633 30.6784C117.66 30.7091 117.811 30.8743 117.811 30.8743C118.609 31.7505 119.299 32.5071 120.756 33.0487C122.202 33.5855 123.731 33.8571 125.301 33.8571C126.876 33.8571 128.315 33.5935 129.577 33.0736C130.869 32.5442 131.902 31.7775 132.647 30.7965C133.409 29.7848 133.794 28.6258 133.794 27.3494C133.795 25.6689 133.15 24.2453 131.878 23.1176ZM165.665 13.4835C165.664 13.4835 165.664 13.4835 165.665 13.4835C164.182 12.5793 162.464 12.1213 160.559 12.1213C158.607 12.1213 156.836 12.5914 155.296 13.5185C153.75 14.4508 152.53 15.7596 151.668 17.4093C150.808 19.0595 150.373 20.9427 150.373 23.0075C150.373 25.0585 150.836 26.9343 151.749 28.5835C152.66 30.2316 153.948 31.5393 155.576 32.47C157.199 33.3902 159.054 33.8566 161.095 33.8566C162.301 33.8566 163.573 33.6157 164.877 33.1403C166.183 32.6617 167.278 32.0481 168.133 31.3164C168.579 30.9093 168.806 30.4185 168.806 29.8795C168.806 29.2961 168.556 28.7566 168.085 28.3188C168.063 28.2992 168.041 28.2806 168.018 28.2632C167.621 27.9683 167.198 27.819 166.762 27.819C166.254 27.819 165.751 28.0016 165.309 28.3479C164.834 28.7619 164.216 29.0949 163.441 29.3644C162.643 29.6386 161.875 29.7726 161.094 29.7726C159.275 29.7726 157.807 29.2368 156.604 28.135C155.611 27.2218 155.002 26.0835 154.717 24.7054C156.356 24.7054 168.267 24.7054 168.267 24.7054C168.848 24.7054 169.358 24.5105 169.743 24.1415C170.014 23.8863 170.345 23.4141 170.345 22.6459C170.345 20.6441 169.937 18.8297 169.131 17.2536C168.315 15.6584 167.149 14.3899 165.665 13.4835ZM154.823 20.804C155.141 19.5455 155.711 18.5126 156.58 17.6909C157.635 16.6924 158.937 16.2069 160.559 16.2069C162.151 16.2069 163.414 16.6887 164.421 17.6803C165.252 18.5036 165.776 19.5408 166.04 20.8045L154.823 20.804ZM146.403 29.2929H145.435C144.536 29.2929 143.821 28.9917 143.251 28.3717C142.671 27.738 142.388 26.9263 142.388 25.8924C142.388 25.8924 142.388 18.3654 142.388 17.0275C143.41 17.0275 145.653 17.0275 145.653 17.0275C146.251 17.0275 146.746 16.8343 147.125 16.4536C147.498 16.0756 147.694 15.587 147.694 15.0395C147.694 14.4693 147.498 13.9695 147.126 13.5931C146.748 13.2151 146.24 13.0171 145.653 13.0171C145.653 13.0171 143.411 13.0171 142.388 13.0171C142.388 11.8471 142.388 8.20614 142.388 8.20614C142.388 7.58936 142.172 7.04457 141.761 6.63055C141.349 6.2176 140.809 6 140.199 6C139.58 6 139.042 6.22289 138.644 6.64485C138.255 7.05569 138.049 7.59571 138.049 8.20614C138.049 8.20614 138.049 11.8471 138.049 13.0171C137.36 13.0171 136.509 13.0171 136.509 13.0171C135.917 13.0171 135.423 13.2088 135.041 13.5868C134.661 13.9733 134.464 14.4736 134.464 15.0395C134.464 15.5833 134.661 16.0714 135.034 16.4505C135.42 16.8359 135.915 17.0281 136.51 17.0281C136.51 17.0281 137.36 17.0281 138.05 17.0281C138.05 18.366 138.05 25.8929 138.05 25.8929C138.05 27.3467 138.367 28.6724 138.991 29.8324C139.616 31.0019 140.502 31.9438 141.622 32.6283C142.741 33.3155 144.025 33.665 145.436 33.665H146.186C146.819 33.665 147.361 33.4622 147.797 33.063C148.249 32.6437 148.486 32.1031 148.486 31.4969C148.486 30.8881 148.297 30.3687 147.922 29.9526C147.537 29.5206 147.011 29.2929 146.403 29.2929ZM183.172 12.6793C183.171 12.6783 183.17 12.6772 183.168 12.6761C182.731 12.277 182.19 12.0742 181.557 12.0742H180.806C179.395 12.0742 178.112 12.4231 176.991 13.1113C175.873 13.7954 174.987 14.7367 174.361 15.9083C173.738 17.0667 173.421 18.3919 173.421 19.8462V31.4588C173.421 32.0687 173.627 32.6087 174.016 33.0206C174.413 33.4415 174.951 33.665 175.571 33.665C176.181 33.665 176.721 33.4474 177.131 33.036C177.543 32.6204 177.76 32.0756 177.76 31.4588V19.8457C177.76 18.8117 178.042 18.0006 178.624 17.3648C179.192 16.7469 179.907 16.4452 180.807 16.4452H181.775C182.383 16.4452 182.908 16.217 183.294 15.7855C183.668 15.3704 183.857 14.8511 183.857 14.2422C183.857 13.6355 183.62 13.0949 183.172 12.6793Z" fill="#0074E1"/>
<path d="M65.6565 10.7978C65.1212 8.54991 64.382 6.22183 62.6123 4.4202C60.6682 2.43661 58.1525 1.85722 55.7422 1.4346C52.0163 0.779695 45.1215 0 33.4286 0C21.7346 0 14.8398 0.779695 11.1155 1.43407C8.70618 1.85722 6.191 2.43609 4.24482 4.4202C2.47566 6.22183 1.73649 8.54991 1.20174 10.7967C0.781844 12.5622 0 15.8472 0 22.5C0 29.1555 0.781844 32.4394 1.20122 34.2033C1.73597 36.4501 2.47514 38.7782 4.2443 40.5814C6.19206 42.5644 8.70723 43.1438 11.1149 43.567C14.8424 44.2208 21.7388 45 33.4286 45C45.1167 45 52.0137 44.2208 55.7422 43.567C58.1515 43.1433 60.6672 42.5644 62.6134 40.5814C64.3831 38.7782 65.1217 36.4501 65.6565 34.2038C66.0764 32.4384 66.8571 29.1544 66.8571 22.5C66.8571 15.8487 66.0764 12.5627 65.6565 10.7978ZM37.9632 4.11346C47.1467 4.29488 52.5047 4.99854 55.032 5.44266C57.2269 5.82753 58.6926 6.24962 59.6862 7.2637C60.761 8.35747 61.2778 10.0595 61.6766 11.7358C61.7414 12.0064 61.8062 12.2858 61.8705 12.5789C59.7594 10.9399 57.1073 9.95986 54.228 9.95986C49.8805 9.95986 46.0482 12.1904 43.8201 15.5614C41.5921 12.1904 37.7598 9.95986 33.4117 9.95986C33.2684 9.95986 33.1262 9.96615 32.9834 9.97035L37.9632 4.11346ZM25.0485 22.3527C25.0485 17.7626 28.8002 14.0282 33.4122 14.0282C38.0243 14.0282 41.7765 17.7626 41.7765 22.3527C41.7765 26.9427 38.0243 30.6766 33.4122 30.6766C28.8002 30.6766 25.0485 26.9427 25.0485 22.3527ZM7.16936 7.26422C8.16985 6.24438 9.57759 5.83644 11.8257 5.44214C14.6791 4.94034 21.1393 4.10821 32.6446 4.07098L23.8657 14.3989C23.8547 14.411 23.8489 14.4262 23.8378 14.4393C22.4922 16.0485 21.5481 18.0012 21.1588 20.1436C20.0218 19.3613 18.7548 18.7562 17.3971 18.3619L22.3252 12.5606C22.92 11.8601 22.9485 10.8801 22.4727 10.1476C22.1745 9.392 21.4385 8.85455 20.5735 8.85455H6.11303C6.39489 8.25313 6.73471 7.70677 7.16936 7.26422ZM5.18051 33.2652C4.6526 31.0473 4.08993 28.2033 4.08993 22.5C4.08993 17.7594 4.47927 14.9962 4.91339 12.9224H16.6648L11.8725 18.5648C11.1439 19.4226 11.2514 20.7057 12.1138 21.4319C12.5532 21.8011 13.1027 21.9515 13.6327 21.9002C13.6749 21.9023 13.7139 21.9122 13.756 21.9122C18.6989 21.9122 22.7198 25.914 22.7198 30.8323C22.7198 35.7511 18.6989 39.7534 13.756 39.7534C13.2334 39.7534 12.7097 39.7084 12.2002 39.6192C12.1871 39.6171 12.1734 39.6182 12.1607 39.6171C12.0443 39.5967 11.9321 39.5783 11.8257 39.5594C9.63133 39.174 8.16616 38.752 7.16883 37.7368C6.0967 36.6441 5.57986 34.9421 5.18051 33.2652ZM61.6766 33.2652C61.2778 34.941 60.761 36.6436 59.6873 37.7374C58.692 38.7514 57.2269 39.173 55.032 39.5589C52.1122 40.0717 45.4218 40.9306 33.4286 40.9306C29.0278 40.9306 25.3435 40.8147 22.2952 40.6427C24.5949 38.6581 26.1934 35.8906 26.6633 32.7587C28.6095 34.013 30.926 34.7449 33.4122 34.7449C37.7603 34.7449 41.5921 32.5144 43.8207 29.1429C46.0487 32.5144 49.881 34.7449 54.2286 34.7449C57.1426 34.7449 59.8232 33.7403 61.9459 32.0661C61.8573 32.4903 61.7673 32.8888 61.6766 33.2652ZM54.2286 30.6766C49.6171 30.6766 45.8648 26.9427 45.8648 22.3527C45.8648 17.7626 49.6171 14.0282 54.2286 14.0282C58.8396 14.0282 62.5923 17.7626 62.5923 22.3527C62.5923 26.9427 58.8396 30.6766 54.2286 30.6766Z" fill="#0074E1"/>
</svg>
