<svg xmlns="http://www.w3.org/2000/svg" xmlns:xlink="http://www.w3.org/1999/xlink" width="497.28" height="136.32" overflow="visible" xml:space="preserve"><path fill-rule="evenodd" clip-rule="evenodd" d="M68.28 0c37.56 0 68.16 30.48 68.16 68.16 0 37.681-30.6 68.16-68.16 68.16C30.6 136.32 0 105.84 0 68.16 0 30.48 30.6 0 68.28 0zM386.04 6.48c34.08 0 61.68 27.6 61.68 61.68 0 33.96-27.6 61.561-61.68 61.561-33.96 0-61.68-27.601-61.68-61.561 0-34.08 27.72-61.68 61.68-61.68zM236.04 25.08C259.8 25.08 279 44.4 279 68.16s-19.2 42.96-42.96 42.96-42.96-19.2-42.96-42.96 19.2-43.08 42.96-43.08z"/><path fill-rule="evenodd" clip-rule="evenodd" d="M315.36 20.4c26.279 0 47.76 21.36 47.76 47.76 0 26.28-21.48 47.76-47.76 47.76-26.4 0-47.761-21.479-47.761-47.76.001-26.4 21.361-47.76 47.761-47.76zM453.12 24c24.359 0 44.16 19.8 44.16 44.16 0 24.36-19.801 44.16-44.16 44.16-24.36 0-44.04-19.8-44.04-44.16 0-24.36 19.68-44.16 44.04-44.16zM152.16 16.56c28.56 0 51.72 23.16 51.72 51.6s-23.16 51.601-51.72 51.601c-28.44 0-51.6-23.16-51.6-51.601 0-28.44 23.16-51.6 51.6-51.6z"/><defs><path id="a" d="M116.28 7.68h353.76v100.44H116.28V7.68z"/></defs><clipPath id="b"><use xlink:href="#a"/></clipPath><path clip-path="url(#b)" fill="#FFF" d="M146.775 65.73c0-4.065-.518-6.945-1.567-8.647-1.05-1.695-2.85-2.542-5.4-2.55-.788.008-1.605.053-2.46.135-.848.09-1.673.188-2.468.292V89.4h-12.652V46.305c1.08-.278 2.34-.57 3.78-.885a89.7 89.7 0 0 1 4.59-.848c1.612-.255 3.27-.45 4.965-.592a67.634 67.634 0 0 1 5.01-.218c3.232.008 5.85.42 7.86 1.238 2.01.825 3.667 1.792 4.972 2.917 1.815-1.29 3.893-2.31 6.248-3.045 2.355-.735 4.515-1.103 6.495-1.11 3.57.008 6.502.503 8.797 1.485 2.295.99 4.118 2.393 5.475 4.2 1.365 1.815 2.295 3.96 2.805 6.45.51 2.49.765 5.265.765 8.31V89.4h-12.66V65.73c0-4.065-.518-6.945-1.568-8.647-1.05-1.695-2.85-2.542-5.4-2.55-.675.008-1.627.18-2.842.518-1.215.345-2.22.765-3.015 1.268.397 1.305.652 2.678.765 4.118.112 1.447.165 2.985.165 4.62V89.4h-12.66V65.73zm102 1.02c0-8.138-3-12.21-9.007-12.218a15.4 15.4 0 0 0-3.863.518c-1.275.345-2.31.765-3.105 1.268v22.988c.63.12 1.425.225 2.385.308.96.09 2.01.127 3.142.119 3.458.008 6.06-1.177 7.815-3.555 1.755-2.371 2.633-5.513 2.633-9.428zm12.914.337c0 3.57-.517 6.803-1.567 9.683-1.05 2.888-2.564 5.348-4.545 7.38-1.979 2.04-4.417 3.607-7.313 4.702-2.887 1.103-6.172 1.65-9.855 1.65a56.32 56.32 0 0 1-4.8-.21 85.77 85.77 0 0 1-4.927-.548 65.019 65.019 0 0 1-4.628-.802 45.575 45.575 0 0 1-3.907-.983V25.605l12.652-2.04v22.23a25.07 25.07 0 0 1 4.425-1.433c1.53-.337 3.172-.51 4.927-.518 3.172.008 5.978.563 8.407 1.658 2.438 1.11 4.478 2.678 6.12 4.71 1.643 2.04 2.888 4.485 3.735 7.335.857 2.866 1.276 6.045 1.276 9.54zm76.936-.082c0 3.51-.51 6.72-1.53 9.63-1.02 2.917-2.49 5.407-4.417 7.47-1.92 2.07-4.23 3.667-6.923 4.792-2.685 1.133-5.707 1.695-9.053 1.695-3.285 0-6.27-.563-8.962-1.695-2.686-1.125-4.995-2.722-6.923-4.792-1.92-2.063-3.42-4.553-4.5-7.47-1.08-2.91-1.62-6.12-1.62-9.63 0-3.495.555-6.69 1.657-9.578 1.11-2.88 2.641-5.347 4.591-7.387 1.957-2.033 4.282-3.615 6.967-4.748 2.692-1.125 5.625-1.695 8.79-1.703 3.232.007 6.195.578 8.88 1.703 2.692 1.132 5.003 2.715 6.923 4.748 1.928 2.04 3.428 4.507 4.508 7.387 1.08 2.888 1.612 6.083 1.612 9.578zm-12.915 0c0-3.9-.772-6.967-2.333-9.203-1.56-2.228-3.779-3.345-6.675-3.353-2.88.008-5.115 1.125-6.705 3.353-1.59 2.235-2.385 5.303-2.385 9.203 0 3.915.795 7.012 2.385 9.3 1.59 2.295 3.825 3.435 6.705 3.427 2.896.008 5.115-1.132 6.675-3.427 1.561-2.288 2.333-5.386 2.333-9.3zm59.423 13.32c2.324.008 3.975-.218 4.935-.675.96-.45 1.44-1.327 1.44-2.633 0-1.012-.623-1.904-1.868-2.67-1.245-.757-3.143-1.62-5.692-2.595-1.979-.728-3.78-1.485-5.399-2.28-1.613-.787-2.985-1.732-4.118-2.842-1.132-1.095-2.01-2.415-2.632-3.945-.623-1.522-.938-3.36-.938-5.52 0-4.178 1.56-7.485 4.672-9.922 3.12-2.43 7.396-3.646 12.833-3.653 2.715.007 5.324.248 7.814.728s4.478 1.005 5.947 1.56l-2.212 9.848a50.108 50.108 0 0 0-4.793-1.357c-1.725-.39-3.667-.593-5.827-.6-3.96.007-5.947 1.11-5.947 3.315 0 .51.09.967.255 1.357.172.405.51.788 1.02 1.147.511.375 1.208.765 2.085 1.185.878.427 1.995.893 3.353 1.395 2.775 1.027 5.07 2.032 6.886 3.022 1.814.99 3.239 2.07 4.29 3.225 1.05 1.163 1.784 2.445 2.204 3.855.428 1.417.638 3.053.638 4.912 0 4.425-1.649 7.763-4.965 10.021-3.314 2.265-8.002 3.39-14.063 3.39-3.96 0-7.26-.337-9.9-1.02-2.632-.676-4.462-1.238-5.482-1.695L371.8 77.61a40.909 40.909 0 0 0 6.622 2.003c2.263.479 4.506.72 6.711.712zm66 0c2.324.008 3.975-.218 4.935-.675.96-.45 1.44-1.327 1.44-2.633 0-1.012-.623-1.904-1.868-2.67-1.245-.757-3.143-1.62-5.692-2.595-1.979-.728-3.78-1.485-5.399-2.28-1.613-.787-2.985-1.732-4.118-2.842-1.132-1.095-2.01-2.415-2.632-3.945-.623-1.522-.938-3.36-.938-5.52 0-4.178 1.56-7.485 4.672-9.922 3.12-2.43 7.396-3.646 12.833-3.653 2.715.007 5.324.248 7.814.728s4.478 1.005 5.947 1.56l-2.212 9.848a50.108 50.108 0 0 0-4.793-1.357c-1.725-.39-3.667-.593-5.827-.6-3.96.007-5.947 1.11-5.947 3.315 0 .51.09.967.255 1.357.172.405.51.788 1.02 1.147.511.375 1.208.765 2.085 1.185.878.427 1.995.893 3.353 1.395 2.775 1.027 5.07 2.032 6.886 3.022 1.814.99 3.239 2.07 4.29 3.225 1.05 1.163 1.784 2.445 2.204 3.855.428 1.417.638 3.053.638 4.912 0 4.425-1.649 7.763-4.965 10.021-3.314 2.265-8.002 3.39-14.063 3.39-3.96 0-7.26-.337-9.9-1.02-2.632-.676-4.462-1.238-5.482-1.695L437.8 77.61a40.909 40.909 0 0 0 6.622 2.003c2.263.479 4.506.72 6.711.712z"/><g><defs><path id="c" d="M36.48 8.16h55.68v115.2H36.48V8.16z"/></defs><clipPath id="d"><use xlink:href="#c"/></clipPath><path clip-path="url(#d)" fill="#FFF" d="M44.272 101.88V34.357h45.6v12.765H59.475v13.252h26.992v12.472H59.475v16.268h32.64v12.766H44.272z"/></g></svg>