<?xml version="1.0" encoding="utf-8"?>
<!-- Generator: Adobe Illustrator 10.0, SVG Export Plug-In . SVG Version: 3.0.0 Build 76)  -->
<!DOCTYPE svg PUBLIC "-//W3C//DTD SVG 1.0//EN"    "http://www.w3.org/TR/2001/REC-SVG-20010904/DTD/svg10.dtd" [
	<!ENTITY ns_flows "http://ns.adobe.com/Flows/1.0/">
	<!ENTITY ns_extend "http://ns.adobe.com/Extensibility/1.0/">
	<!ENTITY ns_ai "http://ns.adobe.com/AdobeIllustrator/10.0/">
	<!ENTITY ns_graphs "http://ns.adobe.com/Graphs/1.0/">
	<!ENTITY ns_vars "http://ns.adobe.com/Variables/1.0/">
	<!ENTITY ns_imrep "http://ns.adobe.com/ImageReplacement/1.0/">
	<!ENTITY ns_sfw "http://ns.adobe.com/SaveForWeb/1.0/">
	<!ENTITY ns_custom "http://ns.adobe.com/GenericCustomNamespace/1.0/">
	<!ENTITY ns_adobe_xpath "http://ns.adobe.com/XPath/1.0/">
	<!ENTITY ns_svg "http://www.w3.org/2000/svg">
	<!ENTITY ns_xlink "http://www.w3.org/1999/xlink">
]>
<svg 
	 xmlns:x="&ns_extend;" xmlns:i="&ns_ai;" xmlns:graph="&ns_graphs;" i:viewOrigin="147.1201 374.3999" i:rulerOrigin="-146 -236" i:pageBounds="146 376 646 236"
	 xmlns="&ns_svg;" xmlns:xlink="&ns_xlink;" xmlns:a="http://ns.adobe.com/AdobeSVGViewerExtensions/3.0/"
	 width="497.28" height="136.32" viewBox="0 0 497.28 136.32" overflow="visible" enable-background="new 0 0 497.28 136.32"
	 xml:space="preserve">
	<metadata>
		<variableSets  xmlns="&ns_vars;">
			<variableSet  varSetName="binding1" locked="none">
				<variables></variables>
				<v:sampleDataSets  xmlns="&ns_custom;" xmlns:v="&ns_vars;"></v:sampleDataSets>
			</variableSet>
		</variableSets>
		<sfw  xmlns="&ns_sfw;">
			<slices></slices>
			<sliceSourceBounds  y="238.08" x="147.12" width="497.28" height="136.32" bottomLeftOrigin="true"></sliceSourceBounds>
		</sfw>
	</metadata>
	<g id="Layer_1" i:layer="yes" i:dimmedPercent="50" i:rgbTrio="#4F008000FFFF">
		<path i:knockout="Off" fill-rule="evenodd" clip-rule="evenodd" d="M68.28,0c37.56,0,68.16,30.48,68.16,68.16
			c0,37.681-30.6,68.16-68.16,68.16C30.6,136.32,0,105.84,0,68.16C0,30.48,30.6,0,68.28,0z"/>
		<path i:knockout="Off" fill-rule="evenodd" clip-rule="evenodd" d="M386.04,6.48c34.08,0,61.68,27.6,61.68,61.68
			c0,33.96-27.6,61.561-61.68,61.561c-33.96,0-61.68-27.601-61.68-61.561C324.36,34.08,352.08,6.48,386.04,6.48z"/>
		<path i:knockout="Off" fill-rule="evenodd" clip-rule="evenodd" d="M236.04,25.08C259.8,25.08,279,44.4,279,68.16
			s-19.2,42.96-42.96,42.96c-23.76,0-42.96-19.2-42.96-42.96S212.28,25.08,236.04,25.08z"/>
		<path i:knockout="Off" fill-rule="evenodd" clip-rule="evenodd" d="M315.36,20.4c26.279,0,47.76,21.36,47.76,47.76
			c0,26.28-21.48,47.76-47.76,47.76c-26.4,0-47.761-21.479-47.761-47.76C267.6,41.76,288.96,20.4,315.36,20.4z"/>
		<path i:knockout="Off" fill-rule="evenodd" clip-rule="evenodd" d="M453.12,24c24.359,0,44.16,19.8,44.16,44.16
			c0,24.36-19.801,44.16-44.16,44.16c-24.36,0-44.04-19.8-44.04-44.16C409.08,43.8,428.76,24,453.12,24z"/>
		<path i:knockout="Off" fill-rule="evenodd" clip-rule="evenodd" d="M152.16,16.56c28.56,0,51.72,23.16,51.72,51.6
			c0,28.44-23.16,51.601-51.72,51.601c-28.44,0-51.6-23.16-51.6-51.601C100.56,39.72,123.72,16.56,152.16,16.56z"/>
		<g>
			<defs>
				<path id="XMLID_1_" d="M116.28,7.68h353.76V108.12H116.28V7.68z"/>
			</defs>
			<clipPath id="XMLID_2_">
				<use xlink:href="#XMLID_1_" />
			</clipPath>
			<path i:knockout="Off" clip-path="url(#XMLID_2_)" fill="#FFFFFF" d="M146.775,65.73c0-4.065-0.518-6.945-1.567-8.647
				c-1.05-1.695-2.85-2.542-5.4-2.55c-0.788,0.008-1.605,0.053-2.46,0.135c-0.848,0.09-1.673,0.188-2.468,0.292V89.4h-12.652V46.305
				c1.08-0.278,2.34-0.57,3.78-0.885c1.448-0.308,2.978-0.592,4.59-0.848c1.612-0.255,3.27-0.45,4.965-0.592
				c1.702-0.135,3.375-0.21,5.01-0.218c3.232,0.008,5.85,0.42,7.86,1.238c2.01,0.825,3.667,1.792,4.972,2.917
				c1.815-1.29,3.893-2.31,6.248-3.045c2.355-0.735,4.515-1.103,6.495-1.11c3.57,0.008,6.502,0.503,8.797,1.485
				c2.295,0.99,4.118,2.393,5.475,4.2c1.365,1.815,2.295,3.96,2.805,6.45c0.51,2.49,0.765,5.265,0.765,8.31V89.4h-12.66V65.73
				c0-4.065-0.518-6.945-1.568-8.647c-1.05-1.695-2.85-2.542-5.4-2.55c-0.675,0.008-1.627,0.18-2.842,0.518
				c-1.215,0.345-2.22,0.765-3.015,1.268c0.397,1.305,0.652,2.678,0.765,4.118c0.112,1.447,0.165,2.985,0.165,4.62V89.4h-12.66
				V65.73z M248.775,66.75c0-8.138-3-12.21-9.007-12.218c-1.298,0.008-2.588,0.18-3.863,0.518c-1.275,0.345-2.31,0.765-3.105,1.268
				v22.988c0.63,0.12,1.425,0.225,2.385,0.308c0.96,0.09,2.01,0.127,3.142,0.119c3.458,0.008,6.06-1.177,7.815-3.555
				C247.897,73.807,248.775,70.665,248.775,66.75z M261.689,67.087c0,3.57-0.517,6.803-1.567,9.683
				c-1.05,2.888-2.564,5.348-4.545,7.38c-1.979,2.04-4.417,3.607-7.313,4.702c-2.887,1.103-6.172,1.65-9.855,1.65
				c-1.53,0-3.127-0.067-4.8-0.21c-1.665-0.135-3.308-0.322-4.927-0.548c-1.613-0.225-3.158-0.487-4.628-0.802
				c-1.47-0.308-2.775-0.638-3.907-0.983V25.605l12.652-2.04v22.23c1.425-0.615,2.895-1.087,4.425-1.433
				c1.53-0.337,3.172-0.51,4.927-0.518c3.172,0.008,5.978,0.563,8.407,1.658c2.438,1.11,4.478,2.678,6.12,4.71
				c1.643,2.04,2.888,4.485,3.735,7.335C261.27,60.413,261.689,63.592,261.689,67.087z M338.625,67.005c0,3.51-0.51,6.72-1.53,9.63
				c-1.02,2.917-2.49,5.407-4.417,7.47c-1.92,2.07-4.23,3.667-6.923,4.792c-2.685,1.133-5.707,1.695-9.053,1.695
				c-3.285,0-6.27-0.563-8.962-1.695c-2.686-1.125-4.995-2.722-6.923-4.792c-1.92-2.063-3.42-4.553-4.5-7.47
				c-1.08-2.91-1.62-6.12-1.62-9.63c0-3.495,0.555-6.69,1.657-9.578c1.11-2.88,2.641-5.347,4.591-7.387
				c1.957-2.033,4.282-3.615,6.967-4.748c2.692-1.125,5.625-1.695,8.79-1.703c3.232,0.007,6.195,0.578,8.88,1.703
				c2.692,1.132,5.003,2.715,6.923,4.748c1.928,2.04,3.428,4.507,4.508,7.387C338.093,60.315,338.625,63.51,338.625,67.005z
				 M325.71,67.005c0-3.9-0.772-6.967-2.333-9.203c-1.56-2.228-3.779-3.345-6.675-3.353c-2.88,0.008-5.115,1.125-6.705,3.353
				c-1.59,2.235-2.385,5.303-2.385,9.203c0,3.915,0.795,7.012,2.385,9.3c1.59,2.295,3.825,3.435,6.705,3.427
				c2.896,0.008,5.115-1.132,6.675-3.427C324.938,74.017,325.71,70.919,325.71,67.005z M385.133,80.325
				c2.324,0.008,3.975-0.218,4.935-0.675c0.96-0.45,1.44-1.327,1.44-2.633c0-1.012-0.623-1.904-1.868-2.67
				c-1.245-0.757-3.143-1.62-5.692-2.595c-1.979-0.728-3.78-1.485-5.399-2.28c-1.613-0.787-2.985-1.732-4.118-2.842
				c-1.132-1.095-2.01-2.415-2.632-3.945c-0.623-1.522-0.938-3.36-0.938-5.52c0-4.178,1.56-7.485,4.672-9.922
				c3.12-2.43,7.396-3.646,12.833-3.653c2.715,0.007,5.324,0.248,7.814,0.728s4.478,1.005,5.947,1.56l-2.212,9.848
				c-1.47-0.503-3.067-0.953-4.793-1.357c-1.725-0.39-3.667-0.593-5.827-0.6c-3.96,0.007-5.947,1.11-5.947,3.315
				c0,0.51,0.09,0.967,0.255,1.357c0.172,0.405,0.51,0.788,1.02,1.147c0.511,0.375,1.208,0.765,2.085,1.185
				c0.878,0.427,1.995,0.893,3.353,1.395c2.775,1.027,5.07,2.032,6.886,3.022c1.814,0.99,3.239,2.07,4.29,3.225
				c1.05,1.163,1.784,2.445,2.204,3.855c0.428,1.417,0.638,3.053,0.638,4.912c0,4.425-1.649,7.763-4.965,10.021
				c-3.314,2.265-8.002,3.39-14.063,3.39c-3.96,0-7.26-0.337-9.9-1.02c-2.632-0.676-4.462-1.238-5.482-1.695l2.131-10.268
				c2.152,0.855,4.357,1.522,6.622,2.003C380.685,80.092,382.928,80.333,385.133,80.325z M451.133,80.325
				c2.324,0.008,3.975-0.218,4.935-0.675c0.96-0.45,1.44-1.327,1.44-2.633c0-1.012-0.623-1.904-1.868-2.67
				c-1.245-0.757-3.143-1.62-5.692-2.595c-1.979-0.728-3.78-1.485-5.399-2.28c-1.613-0.787-2.985-1.732-4.118-2.842
				c-1.132-1.095-2.01-2.415-2.632-3.945c-0.623-1.522-0.938-3.36-0.938-5.52c0-4.178,1.56-7.485,4.672-9.922
				c3.12-2.43,7.396-3.646,12.833-3.653c2.715,0.007,5.324,0.248,7.814,0.728s4.478,1.005,5.947,1.56l-2.212,9.848
				c-1.47-0.503-3.067-0.953-4.793-1.357c-1.725-0.39-3.667-0.593-5.827-0.6c-3.96,0.007-5.947,1.11-5.947,3.315
				c0,0.51,0.09,0.967,0.255,1.357c0.172,0.405,0.51,0.788,1.02,1.147c0.511,0.375,1.208,0.765,2.085,1.185
				c0.878,0.427,1.995,0.893,3.353,1.395c2.775,1.027,5.07,2.032,6.886,3.022c1.814,0.99,3.239,2.07,4.29,3.225
				c1.05,1.163,1.784,2.445,2.204,3.855c0.428,1.417,0.638,3.053,0.638,4.912c0,4.425-1.649,7.763-4.965,10.021
				c-3.314,2.265-8.002,3.39-14.063,3.39c-3.96,0-7.26-0.337-9.9-1.02c-2.632-0.676-4.462-1.238-5.482-1.695l2.131-10.268
				c2.152,0.855,4.357,1.522,6.622,2.003C446.685,80.092,448.928,80.333,451.133,80.325z"/>
		</g>
		<g>
			<defs>
				<path id="XMLID_3_" d="M36.48,8.16h55.68v115.2H36.48V8.16z"/>
			</defs>
			<clipPath id="XMLID_4_">
				<use xlink:href="#XMLID_3_" />
			</clipPath>
			<path i:knockout="Off" clip-path="url(#XMLID_4_)" fill="#FFFFFF" d="M44.272,101.88V34.357h45.6v12.765H59.475v13.252h26.992
				v12.472H59.475v16.268h32.64v12.766H44.272z"/>
		</g>
	</g>
</svg>
