<svg width="165" height="150" viewBox="0 0 165 150" fill="none" xmlns="http://www.w3.org/2000/svg">
<g filter="url(#filter0_d_181_1350)">
<path d="M16.5 56.8817C16.5 60.4966 19.4303 63.4262 23.0445 63.4262H59.2046C62.8195 63.4262 65.7491 60.4959 65.7491 56.8817V32.523C65.7491 28.9081 62.8187 25.9785 59.2046 25.9785H23.0452C19.4303 25.9785 16.5007 28.9089 16.5007 32.523L16.5 56.8817Z" stroke="#0074E1" stroke-width="8.50395" stroke-linecap="round" stroke-linejoin="round"/>
<path d="M125.556 94.9011H132.657C136.272 94.9011 139.202 91.9708 139.202 88.3566V55.9164C139.202 52.3016 136.272 49.3719 132.657 49.3719H85.6098C81.9949 49.3719 79.0646 52.3023 79.0646 55.9164V74.2101" stroke="#0074E1" stroke-width="8.50395" stroke-linecap="round" stroke-linejoin="round"/>
<path d="M49.4703 127.891C49.4703 131.506 52.4014 134.435 56.0155 134.435H105.933C109.548 134.435 112.478 131.505 112.478 127.891V93.6255C112.478 90.0107 109.548 87.0811 105.933 87.0811H56.0155C52.4007 87.0811 49.4703 90.0114 49.4703 93.6255V127.891Z" stroke="#0074E1" stroke-width="8.50395" stroke-linecap="round" stroke-linejoin="round"/>
<path d="M49.2053 44.4891L40.4321 35.716V52.069" stroke="#0074E1" stroke-width="4.25198" stroke-linecap="round" stroke-linejoin="round"/>
<path d="M40.432 52.0683C40.432 53.3873 39.363 54.4563 38.044 54.4563C36.725 54.4563 35.656 53.3873 35.656 52.0683C35.656 50.7493 36.725 49.6803 38.044 49.6803C39.363 49.6803 40.432 50.7493 40.432 52.0683Z" fill="#0074E1" stroke="#0074E1" stroke-width="4.25198" stroke-linecap="round" stroke-linejoin="round"/>
<path d="M87.4149 76.6472L101.224 63.5646L110.776 72.7015" stroke="#0074E1" stroke-width="4.25198" stroke-linecap="round" stroke-linejoin="round"/>
<path d="M106.299 76.9429L121.07 62.9493L131.287 72.7221" stroke="#0074E1" stroke-width="4.25198" stroke-linecap="round" stroke-linejoin="round"/>
<path d="M77.1891 106.603L61.1298 117.582V95.6232L77.1891 106.603Z" stroke="#0074E1" stroke-width="4.25198" stroke-linecap="round" stroke-linejoin="round"/>
<path d="M84.3086 97.5996H102.251" stroke="#0074E1" stroke-width="4.25198" stroke-linecap="round" stroke-linejoin="round"/>
<path d="M99.7612 106.454H102.251" stroke="#0074E1" stroke-width="4.25198" stroke-linecap="round" stroke-linejoin="round"/>
<path d="M84.3086 106.454H92.7373" stroke="#0074E1" stroke-width="4.25198" stroke-linecap="round" stroke-linejoin="round"/>
<path d="M84.3086 115.308H102.251" stroke="#0074E1" stroke-width="4.25198" stroke-linecap="round" stroke-linejoin="round"/>
<path d="M99.7612 124.163H102.251" stroke="#0074E1" stroke-width="4.25198" stroke-linecap="round" stroke-linejoin="round"/>
<path d="M61.1298 124.163H92.7361" stroke="#0074E1" stroke-width="4.25198" stroke-linecap="round" stroke-linejoin="round"/>
<path d="M81.2605 22.577L92.3416 15L92.3459 30.1497L81.2605 22.577Z" fill="#80B9F0" stroke="#80B9F0" stroke-width="4.25198" stroke-linecap="round" stroke-linejoin="round"/>
<path d="M86.9514 22.4789C98.0847 21.9051 108.603 24.7568 117.482 30.1102L86.9514 22.4789Z" fill="#80B9F0"/>
<path d="M86.9514 22.4789C98.0847 21.9051 108.603 24.7568 117.482 30.1102" stroke="#80B9F0" stroke-width="8.50395" stroke-linecap="round" stroke-linejoin="round"/>
<path d="M34.7133 115.837L22.9012 109.461L36.3639 102.515L34.7133 115.837Z" fill="#80B9F0" stroke="#80B9F0" stroke-width="4.25198" stroke-linecap="round" stroke-linejoin="round"/>
<path d="M32.0181 110.824C26.4054 101.192 24.1196 90.537 24.8091 80.1919L32.0181 110.824Z" fill="#80B9F0"/>
<path d="M32.0181 110.824C26.4054 101.192 24.1196 90.537 24.8091 80.1919" stroke="#80B9F0" stroke-width="8.50395" stroke-linecap="round" stroke-linejoin="round"/>
<path d="M145.733 102.188L148.648 115.292L134.583 109.665L145.733 102.188Z" fill="#80B9F0" stroke="#80B9F0" stroke-width="4.25198" stroke-linecap="round" stroke-linejoin="round"/>
<path d="M143.71 107.507C140.103 118.057 133.547 126.761 125.276 133.014L143.71 107.507Z" fill="#80B9F0"/>
<path d="M143.71 107.507C140.103 118.057 133.547 126.761 125.276 133.014" stroke="#80B9F0" stroke-width="8.50395" stroke-linecap="round" stroke-linejoin="round"/>
</g>
<defs>
<filter id="filter0_d_181_1350" x="12.248" y="12.874" width="144.526" height="131.813" filterUnits="userSpaceOnUse" color-interpolation-filters="sRGB">
<feFlood flood-opacity="0" result="BackgroundImageFix"/>
<feColorMatrix in="SourceAlpha" type="matrix" values="0 0 0 0 0 0 0 0 0 0 0 0 0 0 0 0 0 0 127 0" result="hardAlpha"/>
<feOffset dx="6" dy="6"/>
<feColorMatrix type="matrix" values="0 0 0 0 0.898039 0 0 0 0 0.905882 0 0 0 0 0.921569 0 0 0 1 0"/>
<feBlend mode="normal" in2="BackgroundImageFix" result="effect1_dropShadow_181_1350"/>
<feBlend mode="normal" in="SourceGraphic" in2="effect1_dropShadow_181_1350" result="shape"/>
</filter>
</defs>
</svg>
