<svg width="165" height="150" viewBox="0 0 165 150" fill="none" xmlns="http://www.w3.org/2000/svg">
<g filter="url(#filter0_d_181_1261)">
<path d="M28.6011 60.9088V30.5119C28.6011 19.8737 37.2248 11.25 47.8629 11.25H126C136.639 11.25 145.263 19.8737 145.263 30.5119V83.6105C145.263 88.5121 143.432 92.9861 140.416 96.3856" stroke="#0074E1" stroke-width="8.50395" stroke-linecap="round" stroke-linejoin="round"/>
<path d="M72.3966 73.1088V28.4403L111.759 50.775L72.3966 73.1088Z" stroke="#0074E1" stroke-width="8.50395" stroke-linecap="round" stroke-linejoin="round"/>
<path d="M57.2106 83.6064C57.2106 90.4111 51.6951 95.9266 44.8904 95.9266C38.0858 95.9266 32.5703 90.4111 32.5703 83.6064C32.5703 76.8018 38.0858 71.2863 44.8904 71.2863C51.6951 71.2863 57.2106 76.8018 57.2106 83.6064Z" stroke="#80B9F0" stroke-width="8.50395" stroke-linecap="round" stroke-linejoin="round"/>
<path d="M20.25 133.5L30.9906 98.4532H44.8902L61.3173 118.987H78.3736" stroke="#80B9F0" stroke-width="8.50395" stroke-linecap="round" stroke-linejoin="round"/>
<path d="M70.764 101.613L79.2934 87.3973H127.626L112.463 118.987H96.6684" stroke="#80B9F0" stroke-width="8.50395" stroke-linecap="round" stroke-linejoin="round"/>
<path d="M37.9105 132.841H131.101" stroke="#80B9F0" stroke-width="8.50395" stroke-linecap="round" stroke-linejoin="round"/>
</g>
<defs>
<filter id="filter0_d_181_1261" x="15.9969" y="6.99805" width="139.518" height="136.755" filterUnits="userSpaceOnUse" color-interpolation-filters="sRGB">
<feFlood flood-opacity="0" result="BackgroundImageFix"/>
<feColorMatrix in="SourceAlpha" type="matrix" values="0 0 0 0 0 0 0 0 0 0 0 0 0 0 0 0 0 0 127 0" result="hardAlpha"/>
<feOffset dx="6" dy="6"/>
<feColorMatrix type="matrix" values="0 0 0 0 0.898039 0 0 0 0 0.905882 0 0 0 0 0.921569 0 0 0 1 0"/>
<feBlend mode="normal" in2="BackgroundImageFix" result="effect1_dropShadow_181_1261"/>
<feBlend mode="normal" in="SourceGraphic" in2="effect1_dropShadow_181_1261" result="shape"/>
</filter>
</defs>
</svg>
