<svg width="165" height="150" viewBox="0 0 165 150" fill="none" xmlns="http://www.w3.org/2000/svg">
<g filter="url(#filter0_d_181_1279)">
<path d="M66.6412 91.3327V78.9885C66.6412 77.2404 65.2246 75.8231 63.4757 75.8231H59.0448C54.6991 75.8231 51.1771 72.3002 51.1771 67.9553C51.1771 63.6104 54.6999 60.0875 59.0448 60.0875H63.4757C65.2238 60.0875 66.6412 58.671 66.6412 56.922V45.2565H28.419C24.0733 45.2565 20.5513 48.7794 20.5513 53.1243V91.1591" stroke="#0074E1" stroke-width="8.50395"/>
<path d="M66.6275 91.1592H54.2834C52.5353 91.1592 51.1179 92.5758 51.1179 94.3247V98.7556C51.1179 103.101 47.5951 106.623 43.2502 106.623C38.9052 106.623 35.3824 103.1 35.3824 98.7556V94.3247C35.3824 92.5766 33.9659 91.1592 32.2169 91.1592H20.5505V129.382C20.5505 133.728 24.0734 137.25 28.4183 137.25H66.4532" stroke="#0074E1" stroke-width="8.50395"/>
<path d="M66.6411 91.1592H78.9861C80.7342 91.1592 82.1507 89.7435 82.1507 87.9946V83.5638C82.1507 79.2188 85.6744 75.696 90.0194 75.696C94.3643 75.696 97.8863 79.2197 97.8863 83.5638V87.9946C97.8863 89.7427 99.3037 91.1592 101.053 91.1592H112.734V129.382C112.734 133.728 109.21 137.25 104.865 137.25H66.6411V125.584C66.6411 123.836 68.0576 122.418 69.8066 122.418H74.2374C78.5824 122.418 82.1052 118.895 82.1052 114.55C82.1052 110.205 78.5815 106.683 74.2374 106.683H69.8066C68.0585 106.683 66.6411 105.266 66.6411 103.517V91.173V91.1592Z" stroke="#0074E1" stroke-width="8.50395"/>
<path d="M86.6649 40.8412L95.3943 32.1119C96.6304 30.8757 96.6304 28.8725 95.3943 27.6372L92.2614 24.5044C89.1896 21.4325 89.1896 16.4502 92.2623 13.3766C95.335 10.3031 100.316 10.3048 103.388 13.3775L106.521 16.5103C107.757 17.7465 109.761 17.7456 110.998 16.5095L119.257 8.25L146.284 35.2774C149.357 38.3501 149.356 43.3315 146.284 46.4051L119.256 73.4325L111.006 65.1833C109.771 63.9472 109.771 61.9431 111.007 60.707L114.139 57.575C117.211 54.5031 117.212 49.5208 114.139 46.4481C111.066 43.3754 106.084 43.3762 103.012 46.4481L99.8801 49.5801C98.644 50.8162 96.6399 50.8171 95.4029 49.5809L86.6752 40.8516L86.6649 40.8412Z" stroke="#80B9F0" stroke-width="8.50395"/>
</g>
<defs>
<filter id="filter0_d_181_1279" x="16.2986" y="2.23682" width="142.542" height="145.265" filterUnits="userSpaceOnUse" color-interpolation-filters="sRGB">
<feFlood flood-opacity="0" result="BackgroundImageFix"/>
<feColorMatrix in="SourceAlpha" type="matrix" values="0 0 0 0 0 0 0 0 0 0 0 0 0 0 0 0 0 0 127 0" result="hardAlpha"/>
<feOffset dx="6" dy="6"/>
<feColorMatrix type="matrix" values="0 0 0 0 0.898039 0 0 0 0 0.905882 0 0 0 0 0.921569 0 0 0 1 0"/>
<feBlend mode="normal" in2="BackgroundImageFix" result="effect1_dropShadow_181_1279"/>
<feBlend mode="normal" in="SourceGraphic" in2="effect1_dropShadow_181_1279" result="shape"/>
</filter>
</defs>
</svg>
