<svg width="165" height="151" viewBox="0 0 165 151" fill="none" xmlns="http://www.w3.org/2000/svg">
<g filter="url(#filter0_d_181_1316)">
<path d="M87.8327 90.5409C87.8327 97.0569 82.5497 102.339 76.0345 102.339C69.5185 102.339 64.2362 97.0569 64.2362 90.5409C64.2362 84.0249 69.5185 78.7426 76.0345 78.7426C82.5497 78.7426 87.8327 84.0249 87.8327 90.5409Z" stroke="#0074E1" stroke-width="8.50395" stroke-linecap="round" stroke-linejoin="round"/>
<path d="M60.6685 127.297C60.6685 135.922 60.6685 140.232 60.6685 140.232" stroke="#0074E1" stroke-width="8.50395" stroke-linecap="round" stroke-linejoin="round"/>
<path d="M104.37 140.232C104.37 140.232 104.37 129.545 104.37 120.92C104.37 112.295 87.25 110.361 87.25 110.361L76.0345 121.577L64.819 110.361C64.819 110.361 47.6987 112.295 47.6987 120.92C47.6987 129.545 47.6987 140.232 47.6987 140.232" stroke="#0074E1" stroke-width="8.50395" stroke-linecap="round" stroke-linejoin="round"/>
<path d="M91.3998 127.297C91.3998 135.922 91.3998 140.232 91.3998 140.232" stroke="#0074E1" stroke-width="8.50395" stroke-linecap="round" stroke-linejoin="round"/>
<path d="M53.134 75.9796C53.134 82.4956 47.851 87.7778 41.3357 87.7778C34.8197 87.7778 29.5375 82.4956 29.5375 75.9796C29.5375 69.4636 34.8197 64.1813 41.3357 64.1813C47.851 64.1813 53.134 69.4636 53.134 75.9796Z" stroke="#0074E1" stroke-width="8.50395" stroke-linecap="round" stroke-linejoin="round"/>
<path d="M25.969 112.736C25.969 121.361 25.969 125.671 25.969 125.671" stroke="#0074E1" stroke-width="8.50395" stroke-linecap="round" stroke-linejoin="round"/>
<path d="M52.5513 95.7999L41.3358 107.015L30.1203 95.7999C30.1203 95.7999 13 97.7334 13 106.358C13 114.983 13 125.671 13 125.671" stroke="#0074E1" stroke-width="8.50395" stroke-linecap="round" stroke-linejoin="round"/>
<path d="M98.9343 75.9796C98.9343 82.4956 104.217 87.7778 110.733 87.7778C117.249 87.7778 122.531 82.4956 122.531 75.9796C122.531 69.4636 117.249 64.1813 110.733 64.1813C104.217 64.1813 98.9343 69.4636 98.9343 75.9796Z" stroke="#0074E1" stroke-width="8.50395" stroke-linecap="round" stroke-linejoin="round"/>
<path d="M126.099 112.736C126.099 121.361 126.099 125.671 126.099 125.671" stroke="#0074E1" stroke-width="8.50395" stroke-linecap="round" stroke-linejoin="round"/>
<path d="M99.5171 95.7998L110.733 107.015L121.948 95.7998C121.948 95.7998 139.068 97.7333 139.068 106.358C139.068 114.983 139.068 125.671 139.068 125.671" stroke="#0074E1" stroke-width="8.50395" stroke-linecap="round" stroke-linejoin="round"/>
<path d="M21.0558 63.5191C21.0558 33.4088 45.4653 9.00006 75.5755 9.00006C105.686 9.00006 130.095 33.4088 130.095 63.5191" stroke="#80B9F0" stroke-width="8.50395" stroke-linecap="round" stroke-linejoin="round"/>
<path d="M101.888 53.4196C99.5628 28.1348 88.6661 9.00006 75.5756 9.00006C62.4851 9.00006 51.5883 28.1348 49.2633 53.4196" stroke="#80B9F0" stroke-width="8.50395" stroke-linecap="round" stroke-linejoin="round"/>
<path d="M25.6796 41.5201H125.475" stroke="#80B9F0" stroke-width="8.50395" stroke-linecap="round" stroke-linejoin="round"/>
</g>
<defs>
<filter id="filter0_d_181_1316" x="8.74805" y="4.74811" width="140.572" height="145.736" filterUnits="userSpaceOnUse" color-interpolation-filters="sRGB">
<feFlood flood-opacity="0" result="BackgroundImageFix"/>
<feColorMatrix in="SourceAlpha" type="matrix" values="0 0 0 0 0 0 0 0 0 0 0 0 0 0 0 0 0 0 127 0" result="hardAlpha"/>
<feOffset dx="6" dy="6"/>
<feColorMatrix type="matrix" values="0 0 0 0 0.898039 0 0 0 0 0.905882 0 0 0 0 0.921569 0 0 0 1 0"/>
<feBlend mode="normal" in2="BackgroundImageFix" result="effect1_dropShadow_181_1316"/>
<feBlend mode="normal" in="SourceGraphic" in2="effect1_dropShadow_181_1316" result="shape"/>
</filter>
</defs>
</svg>
