<svg width="128" height="83" viewBox="0 0 128 83" fill="none" xmlns="http://www.w3.org/2000/svg">
<g clip-path="url(#clip0_53_460)">
<path d="M64.2912 1.69746C64.2912 2.10108 63.9213 2.42398 63.4705 2.42398C63.0146 2.42398 62.6489 2.10108 62.6489 1.69746C62.6497 1.30049 63.0154 0.975098 63.4713 0.975098C63.9222 0.975098 64.2912 1.30049 64.2912 1.69746Z" fill="#360F0B"/>
<path d="M61.181 1.83962C61.2336 2.23658 60.9147 2.61191 60.4663 2.67599C60.0154 2.73591 59.6097 2.45962 59.5562 2.06598C59.4994 1.67318 59.8192 1.29785 60.2676 1.2371C60.7226 1.16969 61.1243 1.44931 61.181 1.83962Z" fill="#360F0B"/>
<path d="M58.1877 2.15534C58.2871 2.54149 58.0141 2.94511 57.5732 3.05163C57.1357 3.16482 56.6982 2.94178 56.5988 2.54898C56.5028 2.162 56.78 1.75755 57.2175 1.64853C57.6542 1.53535 58.0917 1.76504 58.1877 2.15534Z" fill="#360F0B"/>
<path d="M55.1452 2.75352C55.2913 3.12968 55.0633 3.55826 54.6442 3.72471C54.2242 3.88782 53.7591 3.71722 53.6164 3.33856C53.4711 2.96989 53.6949 2.53381 54.1182 2.37153C54.5407 2.20842 54.9999 2.37819 55.1452 2.75352Z" fill="#360F0B"/>
<path d="M52.3264 3.83453C52.5217 4.18573 52.369 4.64594 51.9749 4.87646C51.5833 5.09949 51.1032 4.9938 50.9045 4.6526C50.7016 4.30556 50.8544 3.84535 51.2493 3.61816C51.6442 3.39096 52.1235 3.48334 52.3264 3.83453Z" fill="#360F0B"/>
<path d="M65.749 1.7934C65.6989 2.19037 66.0187 2.55903 66.4662 2.61895C66.9113 2.68636 67.3195 2.4134 67.3763 2.01727C67.4298 1.61947 67.1141 1.2483 66.6649 1.18755C66.2191 1.12347 65.8058 1.39644 65.749 1.7934Z" fill="#360F0B"/>
<path d="M68.7415 2.13447C68.6463 2.5281 68.916 2.93089 69.3527 3.04158C69.7977 3.15143 70.2352 2.93089 70.3312 2.54142C70.4306 2.15527 70.1567 1.74749 69.7159 1.63764C69.275 1.52779 68.8409 1.74749 68.7415 2.13447Z" fill="#360F0B"/>
<path d="M71.7849 2.7816C71.6396 3.15027 71.8675 3.58968 72.29 3.75279C72.7091 3.90841 73.1709 3.7453 73.3137 3.36997C73.4631 2.99797 73.2352 2.5619 72.816 2.39545C72.3935 2.2365 71.9301 2.40627 71.7849 2.7816Z" fill="#360F0B"/>
<path d="M74.7172 4.0532C74.5185 4.39691 74.6746 4.86794 75.0653 5.0918C75.4603 5.3115 75.9404 5.21497 76.1424 4.8721C76.342 4.51841 76.1858 4.05736 75.7909 3.8335C75.4002 3.60381 74.9167 3.70617 74.7172 4.0532Z" fill="#360F0B"/>
<path d="M47.3108 11.5402C47.0336 11.7641 46.8207 12.0079 46.7105 12.27C46.3899 12.8226 46.202 13.4609 46.202 13.4609C46.202 13.4609 46.8274 13.3436 47.482 13.0823C48.0322 12.9217 48.7261 12.5039 49.1628 12.0503C49.8207 11.3629 50.2256 10.2012 50.2256 10.2012C50.2256 10.2012 48.6192 10.6331 47.5496 11.3704C47.4845 11.4095 47.421 11.4553 47.3643 11.5052C47.3501 11.5086 47.3434 11.5194 47.3325 11.5294C47.325 11.5344 47.3184 11.5402 47.3108 11.5402Z" fill="#360F0B"/>
<path d="M53.2398 8.8588C53.2791 8.97281 53.3216 9.0785 53.3567 9.1742H53.3642H53.3717C55.1702 9.78338 59.2832 10.0913 63.4061 10.0913C67.5224 10.0913 71.6396 9.78338 73.4414 9.1742H73.4489C73.484 9.0785 73.5374 8.9545 73.5833 8.84132C66.7476 6.74748 60.0722 6.7533 53.2398 8.8588ZM75.5279 4.38067C75.0937 4.93992 74.0951 6.01347 73.4656 5.80791C72.7233 5.5674 72.4211 3.56594 72.5597 2.89601C72.3384 3.5443 71.4108 5.20539 70.6543 5.03229C69.8653 4.85503 69.4595 2.61555 69.4595 2.61555C69.4595 2.61555 68.5853 4.61702 67.7888 4.51133C66.9931 4.40481 66.4587 2.21276 66.4587 2.21276C66.4587 2.21276 65.6939 4.28497 64.8923 4.25334C64.0925 4.21756 63.442 1.74756 63.442 1.74756C63.442 1.74756 62.7908 4.21756 61.9917 4.25334C61.2169 4.28497 60.4738 2.59142 60.3669 1.91067C60.3886 2.59891 59.8726 4.40481 59.1053 4.51133C58.3088 4.61369 57.4346 2.61555 57.4346 2.61555C57.4346 2.61555 57.0221 4.8517 56.2364 5.03229C55.4508 5.20955 54.473 3.2963 54.473 3.2963C54.473 3.2963 54.185 5.55243 53.4135 5.80791C52.8808 5.97852 52.2195 4.89415 51.7753 4.46889C51.7252 4.49385 51.6793 4.51882 51.6259 4.53297C51.8964 5.16628 52.2304 6.06007 52.546 6.93806C59.8693 4.4589 67.0858 4.46223 74.4191 6.96385C74.8424 6.04176 75.29 5.09304 75.5813 4.4123C75.5596 4.39815 75.5421 4.38733 75.5279 4.38067ZM52.728 7.44487C52.9092 7.95418 52.9092 7.95835 53.062 8.38361C59.9478 6.23983 66.8937 6.24982 73.7754 8.38361C73.9532 7.96167 73.9849 7.89843 74.212 7.40576C66.9472 4.94408 59.987 5.004 52.728 7.44487Z" fill="#360F0B"/>
<path d="M71.4793 16.593C71.4793 15.6393 71.2371 14.7655 70.7429 13.8967C71.6421 13.5072 72.4603 13.0719 73.1534 12.6816C73.9666 13.4648 74.3331 14.4601 74.3331 15.8066C74.3331 18.2441 71.9694 21.4223 67.1559 25.0333C70.6644 25.769 71.1086 27.9452 71.5219 32.3351C71.9694 36.9947 72.6198 39.4281 74.7423 39.4281C75.9262 39.4281 76.8213 38.4286 77.9242 36.4304C78.7383 34.9499 78.8978 34.1668 79.0648 34.1668C79.1433 34.1668 79.2243 34.2975 79.2243 34.379C79.2243 34.4256 78.897 35.5558 77.9234 37.2527C76.4113 39.9107 75.1071 41.3446 73.1918 41.3446C70.3797 41.3446 69.4771 38.6449 68.9936 33.7349C68.5027 28.859 68.7916 26.3332 65.4459 25.6808V25.4186C69.3994 22.8562 71.4793 19.47 71.4793 16.593ZM50.9329 37.4266C50.9329 39.1235 52.1168 40.5582 53.8686 40.5582C57.9423 40.5582 62.1404 33.4719 62.1404 24.0305C62.1404 17.6816 59.9436 13.8967 57.21 13.8967C55.3331 13.8967 53.947 15.5053 53.947 17.7265C53.947 19.5973 55.0099 20.6817 56.3968 20.6817C57.9072 20.6817 58.5969 19.3784 58.8457 19.3784C58.9667 19.3784 59.0018 19.4275 59.0018 19.5091C59.0018 19.8986 57.129 22.7722 54.6008 22.7722C52.728 22.7722 51.5441 21.4223 51.5441 19.4275C51.5441 16.2884 54.3562 12.9438 58.0283 12.9438C62.1045 12.9438 64.9558 16.8976 64.9558 23.2965C64.9558 27.5125 63.7335 31.8566 61.6962 35.2545C59.2899 39.2541 56.3968 41.3446 53.3818 41.3446C50.6022 41.3446 48.6468 39.0777 48.6468 36.2998C48.6468 34.2059 49.7489 32.817 51.0531 32.817C52.2371 32.817 53.0086 33.6001 53.0086 34.6412C53.0086 35.7755 52.2796 36.5578 50.9713 36.601C50.9329 36.9947 50.9329 37.2527 50.9329 37.4266Z" fill="#360F0B"/>
<path d="M84.8802 31.6937C84.9478 31.4673 84.9837 31.2285 84.9762 30.9638V30.9314C84.972 30.9206 84.972 30.8998 84.9687 30.8889C84.9687 30.8082 84.962 30.7267 84.9478 30.6443C84.9303 30.5319 84.9052 30.4112 84.8802 30.2939C85.0789 30.1025 85.4204 29.7588 85.7084 29.3518C85.933 29.1105 86.0817 28.7668 86.1777 28.374C86.1777 28.374 86.1819 28.3482 86.1819 28.3424C86.1852 28.3274 86.1927 28.3132 86.1961 28.2991C86.2136 28.21 86.232 28.126 86.2462 28.0361C86.4808 26.5706 86.1326 24.6815 86.1326 24.6815C86.1326 24.6815 85.3753 25.5287 84.9453 26.4566C84.9562 26.2053 84.9378 25.9356 84.8635 25.6485C84.8635 25.6485 84.8635 25.6352 84.8593 25.6169C84.8518 25.6069 84.8484 25.5919 84.8484 25.5778C84.8201 25.4862 84.7984 25.408 84.77 25.3231C84.7549 25.2915 84.7416 25.2657 84.7341 25.2307C84.8935 25.0119 85.1791 24.5791 85.392 24.1039C85.5698 23.821 85.6442 23.449 85.6625 23.0445V23.0162C85.6625 22.9954 85.665 22.9846 85.6692 22.9705C85.6692 22.8814 85.6692 22.7899 85.6583 22.7008C85.6016 21.2095 84.8626 19.4128 84.8626 19.4128C84.8626 19.4128 84.3542 20.2741 84.0912 21.1987C84.087 20.9365 84.0302 20.6494 83.9091 20.3523C83.9091 20.3523 83.905 20.3415 83.9016 20.3373C83.9976 20.0935 84.1721 19.615 84.2648 19.1198C84.3684 18.8136 84.3567 18.4424 84.2824 18.0562C84.2782 18.0421 84.2782 18.0346 84.2748 18.0171C84.2748 18.0063 84.2682 17.9922 84.2682 17.9922C84.2531 17.8931 84.2289 17.8049 84.2072 17.7192C83.8273 16.3094 82.7611 14.7474 82.7611 14.7474C82.7611 14.7474 82.4555 15.8276 82.448 16.8346C82.4129 16.6848 82.3695 16.5358 82.3169 16.3868C82.2743 16.1888 82.1749 15.9832 82.0505 15.7777C82.0647 15.657 82.1324 15.027 82.0714 14.3929C82.0856 14.0883 81.9854 13.7337 81.8193 13.3751C81.8193 13.3751 81.8151 13.3543 81.8117 13.3434C81.8076 13.3335 81.8009 13.3193 81.7942 13.301C81.7591 13.2269 81.7199 13.1495 81.6765 13.0746C80.9977 11.7889 79.6926 10.4773 79.6926 10.4773C79.6926 10.4773 79.64 11.1289 79.7177 11.8663C79.6142 11.7356 79.4906 11.6116 79.3445 11.5009C79.337 11.4951 79.3269 11.4835 79.3236 11.4801C79.3094 11.4726 79.3027 11.466 79.296 11.456C79.2635 11.4344 79.2318 11.4127 79.2034 11.3911C79.1249 11.1364 78.9337 10.5056 78.7166 9.9888C78.6306 9.67672 78.4277 9.37962 78.148 9.09584C78.1405 9.08169 78.1363 9.07753 78.1263 9.07087C78.1188 9.06005 78.1054 9.05007 78.0979 9.03509C78.0378 8.9785 77.9743 8.91525 77.9092 8.85866C76.8254 7.8883 75.4711 7.53711 75.4711 7.53711C75.4711 7.53711 75.7625 8.51412 76.3979 9.37213C76.6935 9.76827 77.0091 10.1736 77.3757 10.4707C76.8388 10.2651 76.4297 10.1552 76.4297 10.1552C76.4297 10.1552 76.8388 11.3178 77.4926 11.9978C77.9292 12.4546 78.6231 12.8799 79.1741 13.0389C79.5298 13.1812 79.8638 13.276 80.1085 13.3368C80.2796 13.7154 80.5076 14.0983 80.7522 14.4137C79.9131 13.7862 79.0564 13.4034 79.0564 13.4034C79.0564 13.4034 79.2551 14.4811 79.8137 15.3957C80.1794 15.994 80.819 16.6498 81.36 16.986C81.8752 17.3688 82.362 17.6343 82.5365 17.7192C82.625 18.152 82.7744 18.5697 82.9598 18.9309C82.3411 18.2551 81.6948 17.8016 81.6948 17.8016C81.6948 17.8016 81.5947 18.8785 81.8643 19.8738C82.0455 20.5329 82.4789 21.3052 82.9272 21.7446C83.3931 22.3113 83.8941 22.7225 83.9367 22.7541C83.9651 23.1902 84.0511 23.6187 84.1822 23.955C84.1964 24.0091 84.2105 24.0473 84.2206 24.0973C83.7305 23.1685 83.1685 22.4179 83.1685 22.4179C83.1685 22.4179 82.7886 23.7427 82.9272 24.8163C83.0191 25.5212 83.3497 26.3858 83.7346 26.9135C84.0719 27.4835 84.4377 27.9313 84.5587 28.0719C84.537 28.3873 84.537 28.6927 84.5796 28.9507C84.5905 29.1213 84.6046 29.2836 84.6188 29.4401C84.2632 28.5404 83.7797 27.8139 83.7797 27.8139C83.7797 27.8139 83.1752 28.8442 83.0759 29.8578C83.0116 30.5278 83.1677 31.3816 83.4566 31.9309C83.6653 32.4735 83.9425 32.9337 84.0569 33.1176C83.8549 33.5994 83.6979 34.0996 83.6912 34.4991C83.6837 34.5706 83.6804 34.6414 83.6703 34.7121C83.5109 33.6635 83.2011 32.7348 83.2011 32.7348C83.2011 32.7348 82.3152 33.8158 82.0672 34.8394C81.9002 35.5235 81.9245 36.4298 82.1198 37.0365C82.2225 37.5183 82.3687 37.9286 82.4647 38.1916C82.2125 38.5811 81.9988 38.9988 81.8919 39.3741C81.871 39.4316 81.8493 39.4807 81.8243 39.5414C81.9236 38.4105 81.689 37.3694 81.689 37.3694C81.689 37.3694 80.5702 38.2091 80.0901 39.1411C79.7736 39.7645 79.5883 40.6399 79.6384 41.2741C79.635 41.6602 79.6634 42.0247 79.6951 42.2944C79.3679 42.574 79.0798 42.8894 78.8953 43.1948C78.8352 43.283 78.7809 43.3571 78.7283 43.4428C79.0765 42.3618 79.1758 41.2325 79.1758 41.2325C79.1758 41.2325 78.0169 41.7493 77.3523 42.5216C76.9081 43.0251 76.4313 43.8123 76.367 44.4357C76.2568 44.9383 76.2251 45.4135 76.2143 45.6682C75.9796 45.8171 75.7625 45.9802 75.5956 46.15C75.3334 46.3622 75.0879 46.5786 74.8817 46.77C75.6774 45.6465 75.9062 44.0811 75.9062 44.0811C75.9062 44.0811 74.8366 44.4356 74.0643 45.1081C73.5491 45.5508 73.0665 46.1575 72.8912 46.7525C72.7066 47.1953 72.5931 47.6239 72.5288 47.886C72.3267 47.9567 72.1305 48.0275 71.971 48.1199C71.8249 48.1831 71.6863 48.2505 71.5552 48.3254C71.5552 48.3254 71.5586 48.3179 71.5619 48.3138C71.8324 48.0807 72.032 47.8144 72.1163 47.5173C72.3902 46.8973 72.3793 46.3015 72.3793 46.3015C72.3793 46.3015 71.7105 46.3797 71.025 46.631C70.4456 46.7692 69.8695 47.2119 69.4537 47.7004C69.088 48.1357 68.8425 48.7215 68.6997 49.1327C68.6363 49.1468 68.5695 49.1468 68.5052 49.1601C67.7729 49.2525 67.1542 49.458 67.1542 49.458C67.1542 49.458 67.656 49.9183 68.2355 50.2437C68.4743 50.4143 68.7899 50.5166 69.1556 50.5765C69.1673 50.5807 69.1773 50.5807 69.1882 50.584C69.199 50.584 69.2124 50.5915 69.2274 50.5915C69.3101 50.6023 69.3869 50.609 69.4687 50.6157C70.8088 50.733 72.4979 50.3327 72.4979 50.3327C72.4979 50.3327 71.5168 49.518 70.5675 49.2442C70.4172 49.2017 70.2611 49.1701 70.0974 49.1451C70.3145 49.0594 70.5316 48.9604 70.7412 48.8439C70.8297 48.9005 71.3816 49.2442 71.9928 49.4572C72.2733 49.5987 72.6256 49.6345 72.9989 49.6062H73.0197C73.0439 49.5987 73.0548 49.6062 73.069 49.5987C73.155 49.5912 73.2327 49.5812 73.3186 49.5704C74.6838 49.344 76.2477 48.4228 76.2477 48.4228C76.2477 48.4228 75.0603 47.7279 74.0409 47.6646C73.9724 47.6646 73.9048 47.6713 73.8372 47.6713C74.0576 47.5939 74.2647 47.4341 74.4592 47.2535C74.6805 47.296 75.3835 47.4341 76.0063 47.4483C76.337 47.5007 76.6994 47.4275 77.0759 47.2743C77.0868 47.2743 77.0968 47.2743 77.1076 47.2668C77.1218 47.2635 77.1369 47.2602 77.1511 47.2527C77.2295 47.2211 77.3114 47.1819 77.389 47.1387C78.7258 46.497 80.0592 45.1023 80.0592 45.1023C80.0592 45.1023 78.846 44.8501 77.8257 45.0165C77.9752 44.8784 78.1213 44.7261 78.2382 44.5314C78.2448 44.5272 78.2448 44.5239 78.2482 44.5139C78.5154 44.5172 79.0765 44.5139 79.6133 44.4115C79.9473 44.394 80.2963 44.2409 80.6345 44.0179C80.6411 44.0104 80.6487 44.0071 80.6587 44.0004C80.6737 43.9929 80.6846 43.9829 80.6946 43.9754C80.7697 43.923 80.8399 43.8731 80.9117 43.8165C82.0706 42.8811 83.055 41.2017 83.055 41.2017C83.055 41.2017 82.0447 41.2017 81.1421 41.478C81.3091 41.2541 81.4728 40.9703 81.5688 40.7406C81.8994 40.6624 82.4396 40.5109 82.8629 40.263C83.1685 40.1315 83.4533 39.8726 83.7138 39.5498C83.7204 39.5398 83.7238 39.5364 83.7313 39.5181C83.7388 39.5081 83.7522 39.494 83.7597 39.4865C83.8123 39.4158 83.8699 39.3384 83.9166 39.2635C84.7691 38.0018 85.3878 36.1027 85.3878 36.1027C85.3878 36.1027 84.3358 36.4606 83.5259 37.0348C83.6361 36.8151 83.7154 36.5604 83.7463 36.2625C83.7505 36.2584 83.7505 36.245 83.7505 36.245C83.7538 36.2192 83.7538 36.2059 83.7538 36.2059C83.7613 36.1385 83.7613 36.0919 83.7613 36.032C83.996 35.8864 84.6172 35.4969 85.0589 35.065C85.3327 34.8594 85.5456 34.5332 85.7201 34.1429C85.7277 34.1371 85.731 34.1221 85.7352 34.1154C85.7385 34.1013 85.7494 34.0871 85.756 34.0721C85.7911 33.9881 85.827 33.9024 85.8554 33.8142C86.3814 32.3436 86.3889 30.3314 86.3889 30.3314C86.3889 30.3314 85.5097 30.9247 84.8802 31.6937ZM65.8876 49.508C66.3393 49.4639 66.9121 49.3449 67.3638 49.0935C68.8525 48.268 69.1614 46.8865 69.1614 46.8865C69.1614 46.8865 67.3062 47.1029 66.0721 47.4599C65.4576 47.6438 64.9174 47.9725 64.4766 48.3487C64.6536 48.6783 64.7638 49.0752 64.7638 49.5138C64.7638 49.9216 64.6719 50.3002 64.5083 50.6157C64.7638 50.8678 65.0485 51.1017 65.3399 51.2356C65.3516 51.2431 65.3608 51.2506 65.3725 51.2531C65.3866 51.2565 65.4042 51.2639 65.4184 51.2673C65.5077 51.3064 65.5962 51.3422 65.6922 51.3713C67.2352 51.9022 69.037 51.3172 69.037 51.3172C69.037 51.3172 68.4684 50.8528 67.4698 50.2195C67.0115 49.9332 66.4454 49.6528 65.8876 49.508ZM50.2574 9.42123C50.8936 8.56073 51.185 7.58621 51.185 7.58621C51.185 7.58621 49.8307 7.93324 48.7428 8.90776C48.6827 8.96102 48.6184 9.02177 48.5583 9.08169C48.5474 9.09584 48.5366 9.1025 48.5257 9.11332C48.519 9.12081 48.5115 9.13162 48.5082 9.13745C48.231 9.42872 48.0281 9.72665 47.9396 10.0354C47.6624 10.7037 47.4169 11.555 47.4169 11.555C47.4169 11.555 48.0924 11.2146 48.7887 10.821C49.3824 10.5697 49.8374 9.99213 50.2574 9.42123ZM62.0944 48.3354C61.6678 47.9842 61.1593 47.6763 60.584 47.5098C59.35 47.1512 57.367 46.929 57.367 46.929C57.367 46.929 57.8036 48.3138 59.2932 49.1468C59.7416 49.3915 60.3177 49.5088 60.7652 49.5579C60.2108 49.6961 59.6455 49.9757 59.1872 50.2695C58.1877 50.8969 57.6191 51.3638 57.6191 51.3638C57.6191 51.3638 59.4218 51.948 60.9639 51.4204C61.0566 51.3888 61.1493 51.353 61.2378 51.3172C61.252 51.3139 61.2703 51.3031 61.2837 51.2997C61.2946 51.2922 61.3021 51.2847 61.3163 51.2789C61.5935 51.1574 61.8598 50.9419 62.0978 50.7047C61.9099 50.3751 61.7964 49.9607 61.7964 49.5138C61.7964 49.0686 61.9099 48.665 62.0944 48.3354ZM59.4961 49.508C59.4961 49.508 58.8807 49.2983 58.1451 49.2109C58.0917 49.1959 58.0174 49.1934 57.9564 49.1826C57.8112 48.7673 57.5657 48.1831 57.2 47.747C56.7842 47.2577 56.2147 46.8149 55.6286 46.6735C54.9456 46.4288 54.2777 46.3506 54.2777 46.3506C54.2777 46.3506 54.2635 46.9423 54.5373 47.5623C54.6225 47.8594 54.8254 48.1257 55.0951 48.3595C55.0951 48.3595 55.0992 48.3595 55.1026 48.3703C54.9707 48.3029 54.8321 48.2322 54.6826 48.1689C54.5231 48.0766 54.3236 47.9983 54.1249 47.9276C54.0606 47.6721 53.9437 47.2369 53.7592 46.8041C53.5847 46.2016 53.1046 45.6032 52.5927 45.1572C51.8179 44.4773 50.7483 44.1227 50.7483 44.1227C50.7483 44.1227 50.9754 45.6923 51.772 46.8116C51.5624 46.6235 51.3236 46.408 51.0606 46.1991C50.8936 46.0219 50.6732 45.8662 50.4386 45.7131C50.4277 45.4618 50.396 44.9799 50.2858 44.4773C50.2215 43.8573 49.7456 43.0675 49.3047 42.5648C48.6368 41.7917 47.4703 41.2849 47.4703 41.2849C47.4703 41.2849 47.5772 42.4084 47.9254 43.4819C47.8686 43.4004 47.8185 43.3255 47.755 43.2373C47.573 42.9368 47.2858 42.6214 46.9585 42.341C46.9902 42.068 47.0186 41.7102 47.0086 41.3207C47.0654 40.6865 46.8767 39.8077 46.5636 39.1911C46.0843 38.2565 44.9638 37.416 44.9638 37.416C44.9638 37.416 44.73 38.4612 44.8252 39.5839C44.8043 39.5314 44.7835 39.479 44.7618 39.4249C44.6549 39.0496 44.442 38.6277 44.1898 38.2349C44.285 37.976 44.4311 37.5691 44.5305 37.0839C44.73 36.4739 44.7509 35.5734 44.5873 34.8902C44.3384 33.8624 43.4534 32.7789 43.4534 32.7789C43.4534 32.7789 43.1411 33.7068 42.9842 34.7595C42.9741 34.6888 42.97 34.6214 42.9591 34.5432C42.9524 34.1454 42.7963 33.6427 42.5934 33.165C42.7103 32.9836 42.9883 32.5267 43.1937 31.9775C43.486 31.4324 43.6421 30.5744 43.5745 29.9053C43.4751 28.8883 42.8739 27.8605 42.8739 27.8605C42.8739 27.8605 42.3905 28.5837 42.039 29.4833C42.0498 29.3269 42.064 29.1646 42.0707 28.9982C42.1166 28.7318 42.1166 28.4306 42.0991 28.1118C42.2202 27.9737 42.5867 27.5276 42.9207 26.9609C43.3006 26.4366 43.6354 25.5719 43.7273 24.8629C43.8692 23.786 43.486 22.4645 43.486 22.4645C43.486 22.4645 42.9274 23.2193 42.4297 24.1439C42.4481 24.0981 42.4615 24.0548 42.4723 24.0057C42.6076 23.6687 42.6861 23.2334 42.7178 22.8007C42.7604 22.7724 43.258 22.3613 43.7273 21.7879C44.1714 21.3518 44.6123 20.5828 44.7901 19.9237C45.0607 18.9209 44.9571 17.8474 44.9571 17.8474C44.9571 17.8474 44.3142 18.3009 43.6989 18.9783C43.8767 18.6205 44.0295 18.1952 44.1188 17.77C44.2925 17.6776 44.7835 17.4154 45.2953 17.0335C45.8388 16.6997 46.4751 16.0406 46.8408 15.4423C47.3994 14.5318 47.5989 13.4508 47.5989 13.4508C47.5989 13.4508 46.7414 13.8303 45.9023 14.4569C46.2513 14.0034 46.5778 13.4017 46.7489 12.8741C47.0721 11.8563 46.9618 10.5247 46.9618 10.5247C46.9618 10.5247 45.6577 11.8355 44.9788 13.1221C44.9396 13.1986 44.897 13.2735 44.8578 13.3484C44.8544 13.3667 44.8469 13.3759 44.8436 13.3909C44.8369 13.4017 44.8327 13.4117 44.8327 13.4117C44.6691 13.777 44.5739 14.1315 44.5806 14.4395C44.5238 15.0769 44.5873 15.7044 44.6056 15.8284C44.4812 16.0306 44.3819 16.232 44.3384 16.4268C44.285 16.5832 44.2424 16.7322 44.2074 16.8803C44.204 15.8742 43.8942 14.7907 43.8942 14.7907C43.8942 14.7907 42.8314 16.356 42.4481 17.77C42.4264 17.8549 42.4047 17.9364 42.3905 18.0246C42.3838 18.0396 42.3838 18.0571 42.3805 18.0637C42.3763 18.082 42.3763 18.092 42.373 18.0995C42.2978 18.489 42.2911 18.861 42.3905 19.1731C42.4832 19.6657 42.6577 20.1401 42.7529 20.3881C42.7495 20.3956 42.7462 20.3989 42.7462 20.3989C42.6251 20.7002 42.5717 20.984 42.565 21.2494C42.2978 20.3249 41.7902 19.4635 41.7902 19.4635C41.7902 19.4635 41.0579 21.2561 40.997 22.7483C40.9903 22.8431 40.9903 22.9255 40.9903 23.0171C40.9936 23.0279 40.9936 23.0454 40.9936 23.0595C40.9936 23.0595 40.9936 23.0845 40.997 23.0911C41.0078 23.4956 41.0863 23.8676 41.2642 24.148C41.4737 24.6299 41.7651 25.0543 41.9213 25.2773C41.9146 25.3098 41.9004 25.3414 41.8862 25.3764C41.8578 25.4588 41.8328 25.5395 41.8077 25.621C41.8077 25.6394 41.8044 25.6527 41.8002 25.6676C41.7969 25.6785 41.7969 25.6851 41.7902 25.6993C41.7192 25.9831 41.6975 26.2519 41.7117 26.504C41.2817 25.5753 40.5244 24.7289 40.5244 24.7289C40.5244 24.7289 40.1762 26.6205 40.4108 28.0877C40.4284 28.1726 40.4392 28.2608 40.4643 28.3432C40.4676 28.3598 40.471 28.3748 40.4743 28.3915C40.4743 28.3915 40.4743 28.4098 40.4818 28.4239C40.5745 28.8101 40.7231 29.1571 40.9435 29.3984C41.2358 29.8054 41.5731 30.1458 41.7793 30.3405C41.7543 30.4578 41.7225 30.5744 41.7117 30.6917C41.6942 30.7733 41.6875 30.854 41.6875 30.9364C41.6833 30.9497 41.6833 30.9647 41.6833 30.9647C41.6758 30.9921 41.6833 30.9996 41.6833 30.9996C41.6691 31.2759 41.7084 31.5173 41.7726 31.737C41.1431 30.9713 40.2681 30.3838 40.2681 30.3838C40.2681 30.3838 40.2798 32.3919 40.8016 33.8624C40.83 33.9473 40.8659 34.0355 40.901 34.1179C40.9085 34.1354 40.9118 34.1454 40.9227 34.1637C40.926 34.1737 40.9293 34.1886 40.9335 34.1961C41.1072 34.5781 41.3243 34.911 41.6015 35.1166C42.039 35.5452 42.6577 35.9421 42.8915 36.0811C42.8915 36.1377 42.899 36.1868 42.9032 36.24L42.9065 36.2825C42.9098 36.2966 42.9098 36.3041 42.9098 36.3041C42.9382 36.6046 43.0159 36.86 43.1269 37.0864C42.3195 36.5055 41.2675 36.151 41.2675 36.151C41.2675 36.151 41.8862 38.0509 42.7387 39.3117C42.7888 39.39 42.838 39.464 42.8915 39.5389C42.9032 39.5456 42.9132 39.5564 42.9207 39.5739C42.9307 39.578 42.9349 39.588 42.9449 39.5914C43.2012 39.9217 43.486 40.1756 43.7949 40.3112C44.2107 40.5625 44.7542 40.7115 45.0924 40.7897C45.1809 41.0194 45.3446 41.2957 45.5157 41.5262C44.6056 41.2566 43.5995 41.2566 43.5995 41.2566C43.5995 41.2566 44.5806 42.9327 45.7462 43.8573C45.8138 43.918 45.8848 43.9746 45.9599 44.0204C45.9699 44.0312 45.9808 44.0412 45.995 44.0487C46.0025 44.0553 46.0133 44.0595 46.02 44.0695C46.3573 44.2925 46.7022 44.4415 47.0403 44.4631C47.5772 44.5655 48.1391 44.5688 48.4021 44.5655C48.4055 44.5688 48.4122 44.5755 48.4163 44.5805C48.5366 44.7744 48.6793 44.9275 48.828 45.0606C47.8043 44.8959 46.5961 45.1539 46.5961 45.1539C46.5961 45.1539 47.9287 46.5428 49.2655 47.1903C49.344 47.2294 49.4258 47.2652 49.5076 47.301C49.5176 47.301 49.536 47.3118 49.5468 47.3118C49.5569 47.3226 49.5644 47.3259 49.5744 47.3293C49.9518 47.4749 50.3208 47.5498 50.6515 47.4957C51.2702 47.4849 51.974 47.3467 52.1953 47.2976C52.3898 47.4857 52.5927 47.638 52.8165 47.7162C52.7497 47.7162 52.6779 47.7121 52.6136 47.7162C51.5941 47.7795 50.4068 48.4702 50.4068 48.4702C50.4068 48.4702 51.9674 49.3915 53.3358 49.6145C53.4177 49.632 53.5028 49.6428 53.5847 49.6503C53.5955 49.6503 53.6055 49.6503 53.6231 49.6536C53.6348 49.6536 53.6414 49.6578 53.6556 49.6578C54.0288 49.6861 54.3812 49.647 54.6584 49.5088C55.2729 49.2924 55.824 48.9487 55.9092 48.8996C56.1229 49.0062 56.3391 49.1085 56.5596 49.1942C56.3968 49.2217 56.2323 49.2542 56.087 49.2933C55.1343 49.5621 54.1608 50.3776 54.1608 50.3776C54.1608 50.3776 55.8415 50.7813 57.1891 50.6681C57.2676 50.6573 57.3486 50.6573 57.4313 50.6398C57.4413 50.6398 57.4555 50.6365 57.4555 50.6365C57.4772 50.6365 57.4872 50.6331 57.4981 50.6331C57.8571 50.569 58.1802 50.47 58.419 50.2894C58.9985 49.9615 59.4961 49.508 59.4961 49.508Z" fill="#360F0B"/>
<path d="M70.7178 8.9359C68.425 8.58471 65.916 8.39746 63.3427 8.39746C60.7719 8.39746 58.2587 8.58471 55.9659 8.9359C57.9322 9.10234 60.5056 9.18806 63.3427 9.18806C66.1757 9.18889 68.7498 9.10318 70.7178 8.9359Z" fill="#360F0B"/>
<path d="M63.3034 50.8547L62.39 49.494L63.3034 48.1758L64.2202 49.494L63.3034 50.8547Z" fill="#360F0B"/>
<path d="M12.2247 74.4474C10.7994 70.9954 9.33073 67.4369 5.44989 66.6971C7.9038 63.8626 10.6817 60.85 12.6663 58.8701L13.4011 58.1411H9.72065L9.60543 58.3899C9.08275 59.5209 7.48299 61.589 3.5938 66.147V61.8112C3.5938 59.8313 3.70234 59.3262 3.81673 58.7969L3.95533 58.1411H1.05305L1.19416 58.7927C1.30771 59.3212 1.41959 59.818 1.41959 61.8112V70.0259C1.41959 73.8716 1.3887 76.4015 1.3194 78.2315C1.25344 80.4252 1.18748 80.8263 1.06641 81.3989L0.954529 81.9174H4.05469L3.94448 81.3989C3.82258 80.8238 3.75745 80.4219 3.69149 78.2307C3.62386 76.4015 3.5938 73.8716 3.5938 70.0259V68.1934C7.62743 67.9595 9.06438 72.0066 10.4479 75.9271C11.4832 78.8715 12.4651 81.6561 14.5583 82.3534L14.7287 82.41L17.3078 81.1218L16.5263 80.7406C14.3947 79.7062 13.3427 77.153 12.2247 74.4474Z" fill="#360F0B"/>
<path d="M40.8233 59.2897C42.8088 59.2897 44.6248 59.7665 45.9415 60.6312L46.2922 60.8592L47.5839 59.0092L47.1113 58.7978C45.3888 58.0205 43.4392 57.6436 41.1498 57.6436C34.2573 57.6436 29.0605 62.9664 29.0605 70.0243C29.0605 77.0832 34.1721 82.4068 40.9535 82.4068C43.3933 82.4068 45.3278 82.0531 47.0437 81.2866L47.5062 81.0819L46.2972 79.2502L45.9365 79.4941C44.7267 80.3096 42.9374 80.7981 41.1498 80.7981C36.0031 80.7981 31.6422 75.9588 31.4293 70.0085C31.3182 66.8761 32.3269 64.0441 34.269 62.0351C35.9864 60.2675 38.3134 59.2897 40.8233 59.2897Z" fill="#360F0B"/>
<path d="M60.5456 74.4445C59.1187 70.9941 57.65 67.4372 53.7725 66.6966C56.2114 63.8771 58.9884 60.8611 60.989 58.8696L61.7229 58.1406H58.0416L57.9255 58.3895C57.4087 59.5121 55.8081 61.5826 51.9122 66.1465V61.8107C51.9122 59.8358 52.0216 59.334 52.1368 58.8039L52.2771 58.1406H49.3765L49.5159 58.7947C49.632 59.3257 49.7414 59.8217 49.7414 61.8107V70.0254C49.7414 73.7829 49.7105 76.3893 49.642 78.231C49.5744 80.4347 49.5109 80.8134 49.3882 81.3984L49.2763 81.916H52.3765L52.2663 81.3984C52.1444 80.8234 52.0784 80.4214 52.0124 78.2302C51.944 76.376 51.9122 73.8461 51.9122 70.0254V68.1929C55.9267 67.9491 57.3836 72.0061 58.7672 75.9266C59.8042 78.871 60.7861 81.6556 62.8801 82.353L63.0479 82.4095L65.6304 81.1213L64.8481 80.741C62.7165 79.7065 61.6619 77.15 60.5456 74.4445Z" fill="#360F0B"/>
<path d="M68.3824 61.8698C70.0331 60.1646 72.2775 59.2242 74.6997 59.2242C80.156 59.2242 84.4335 63.8754 84.6522 70.0446C84.7666 73.2819 83.758 76.1763 81.8067 78.1895C80.1585 79.8955 77.9142 80.835 75.4878 80.835C70.0365 80.835 65.7574 76.1813 65.5369 70.0105C65.4209 66.7757 66.4337 63.8804 68.3824 61.8698ZM75.0963 57.6455C68.2756 57.6455 63.1331 62.9683 63.1331 70.0263C63.1331 77.0851 68.2756 82.4088 75.0963 82.4088C81.9161 82.4088 87.0561 77.0859 87.0561 70.0263C87.0569 62.9683 81.9161 57.6455 75.0963 57.6455Z" fill="#360F0B"/>
<path d="M92.2979 67.5994C97.1806 67.5994 100.093 70.245 100.093 74.6766C100.093 78.9217 96.4868 80.5037 94.2141 80.5037C91.7568 80.5037 91.7568 80.5037 91.7568 78.2126C91.7568 76.9235 91.7359 75.3398 91.7142 73.6205C91.6883 71.7122 91.6625 69.6384 91.6591 67.6161C91.8737 67.6044 92.0858 67.5994 92.2979 67.5994ZM95.7896 62.6286C95.7896 63.6281 95.4373 64.4612 94.771 65.0337C94.0529 65.6479 92.9533 65.9783 91.6583 65.9483C91.66 61.6358 91.6758 60.2718 91.7 59.6818C92.0941 59.6235 92.5851 59.5886 92.9007 59.5886C94.8177 59.5878 95.7896 60.6089 95.7896 62.6286ZM95.5851 66.4418C96.9736 65.6396 98.0949 64.184 98.0949 62.3315C98.0949 59.6036 96.1294 58.0415 92.7037 58.0415C92.343 58.0415 91.9205 58.0598 91.4579 58.0831C90.906 58.1106 90.2915 58.1414 89.6477 58.1414H89.1184L89.2595 58.7972C89.3722 59.3264 89.4799 59.8316 89.4799 61.8114V70.0262C89.4799 73.9068 89.4507 76.4359 89.3822 78.2351C89.3171 80.4221 89.252 80.8233 89.1309 81.3992L89.0182 81.9176H89.5517C91.0964 81.9176 93.835 82.0816 93.8701 82.0816C93.9995 82.0857 94.1281 82.0882 94.255 82.0882C98.2377 82.0882 102.466 79.505 102.466 74.7115C102.466 70.3973 99.8692 67.3298 95.5851 66.4418Z" fill="#360F0B"/>
<path d="M108.957 61.8673C110.605 60.1646 112.846 59.2242 115.27 59.2242C120.724 59.2242 125.002 63.8754 125.224 70.0446C125.338 73.2819 124.329 76.1763 122.379 78.1895C120.729 79.8938 118.484 80.835 116.06 80.835C110.607 80.835 106.329 76.1813 106.11 70.0105C105.992 66.7732 107.005 63.8804 108.957 61.8673ZM115.665 57.6455C108.844 57.6455 103.702 62.9683 103.702 70.0263C103.702 77.0851 108.844 82.4088 115.665 82.4088C122.485 82.4088 127.628 77.0859 127.628 70.0263C127.628 62.9683 122.485 57.6455 115.665 57.6455Z" fill="#360F0B"/>
<path d="M30.8223 58.1445H27.242V58.574C27.242 59.0866 26.6233 61.1164 24.8783 66.658C22.7884 63.6995 19.5071 58.8686 19.3084 58.4083L19.1956 58.1454H15.5411L16.3911 58.896C16.7334 59.1998 17.4531 60.1518 18.2154 61.1596C18.7556 61.8745 19.3543 62.6643 19.958 63.4174C21.2496 64.997 22.7342 66.9693 24.1761 68.89L21.5569 76.3633C21.0659 77.8138 19.7384 80.7615 19.0437 81.2217L18.3507 81.6761L20.6009 82.5449L20.7687 82.4626C21.3632 82.1696 21.9735 81.1352 22.1096 80.8847C23.7319 77.0532 26.8229 67.1948 26.8496 67.1083C28.1329 63.3991 29.549 59.3995 30.0767 58.8752L30.8223 58.1445Z" fill="#360F0B"/>
</g>
<defs>
<clipPath id="clip0_53_460">
<rect width="126.673" height="81.5699" fill="white" transform="translate(0.954529 0.975098)"/>
</clipPath>
</defs>
</svg>

