<svg width="157" height="51" viewBox="0 0 157 51" fill="none" xmlns="http://www.w3.org/2000/svg">
<g clip-path="url(#clip0_53_396)">
<path d="M107.46 50.1907V0.289062H156.888V50.1907H107.46ZM145.222 30.2992V24.345H134.096V27.8756H141.255V30.72C141.255 33.6199 140.682 35.675 139.167 37.5179C137.868 39.108 136.066 40.1253 134.094 40.5302V44.1775C137.13 43.7534 139.885 42.3414 142.037 39.9949C144.335 37.5179 145.222 34.6202 145.222 30.2992ZM130.654 9.87924V6.24096C127.548 6.55625 124.791 7.87524 122.622 10.0652C119.125 13.5958 119.125 17.2851 119.125 25.241C119.125 33.1969 119.125 36.8874 122.622 40.4168C124.788 42.6045 127.577 43.9223 130.654 44.2388V40.6084C128.749 40.309 126.992 39.4437 125.701 38.0986C123.353 35.675 123.092 33.0926 123.092 25.241C123.092 17.3894 123.352 14.8603 125.701 12.4356C126.992 11.0905 128.751 10.1923 130.654 9.87924ZM134.095 6.29086V9.94389C137.703 10.6561 140.26 13.3497 141.152 17.3894H145.119C144.128 11.433 140.105 7.07114 134.095 6.29086Z" fill="#B70D29"/>
<path d="M53.9625 50.1907V0.289062H103.391V50.1907H53.9625ZM67.586 43.0071H70.9389V7.47149H67.586V43.0071ZM74.6783 43.0071H89.7685V39.6229H74.6783V43.0071ZM74.6783 26.932H89.7685V23.5477H74.6783V26.932ZM74.6783 10.8569H89.7685V7.47149H74.6783V10.8569Z" fill="#CD0A1E"/>
<path d="M0.466064 50.1907V0.289062H49.8944V50.1907H0.466064ZM9.13617 13.7897V43.0071H12.489V19.652L9.13617 13.7897ZM9.13617 7.77657V8.4854L9.51476 9.14773L23.3173 33.3466H23.3559H27.1871H27.2268L34.9855 19.7813V13.014L25.2715 29.9987L12.489 7.64615L12.3893 7.47149H9.13617V7.77657ZM37.8714 13.9201V43.0071H41.2243V7.47149H37.8714V7.57923V13.9201Z" fill="#E3000B"/>
</g>
<defs>
<clipPath id="clip0_53_396">
<rect width="156.422" height="49.9016" fill="white" transform="translate(0.466064 0.289062)"/>
</clipPath>
</defs>
</svg>

