<svg width="221" height="71" viewBox="0 0 221 71" fill="none" xmlns="http://www.w3.org/2000/svg">
<g clip-path="url(#clip0_53_437)">
<path d="M23.2643 0.63623H46.4233V70.0794H23.2643V0.63623Z" fill="black"/>
<path d="M69.536 21.3722L48.8608 0.63623H69.536V21.3722Z" fill="black"/>
<path d="M0.147705 21.3722L20.8673 0.63623H0.147705V21.3722Z" fill="black"/>
<path d="M93.0057 12.8022H106.891V16.8428H101.835V29.9419H98.064V16.8428H93.0057V12.8022Z" fill="black"/>
<path d="M116.788 20.9282C116.431 20.6616 115.812 20.3951 115.101 20.3951C113.814 20.3951 112.795 21.0615 112.484 22.3478V29.9403H108.802V16.8432H112.353V18.5738C112.751 17.3299 113.816 16.4878 115.236 16.4878C116.213 16.4878 117.054 16.9764 117.321 17.5095L116.788 20.9282Z" fill="black"/>
<path d="M143.184 28.8759C142.518 29.72 141.319 30.3419 139.766 30.3419C136.838 30.3419 135.375 28.5205 135.375 25.8571V20.7059H133.158V19.6397L138.172 13.5576H139.059V16.843H142.962V20.7059H139.059V24.9686C139.059 26.0348 139.725 26.4346 140.478 26.4346C141.188 26.4346 141.765 26.168 142.385 25.5017L143.184 28.8759Z" fill="black"/>
<path d="M144.915 16.8428H149.085L152.146 24.2132L155.207 16.8428H159.378L151.48 35.2707H147.487L150.151 29.0089L144.915 16.8428Z" fill="black"/>
<path d="M177.569 12.8022H181.251V21.7719L185.597 16.8428H190.434L184.623 23.3248L190.922 29.94H186.043L181.253 24.9665V29.94H177.571L177.569 12.8022Z" fill="black"/>
<path d="M204.987 23.414C204.987 27.4101 201.704 30.3401 197.933 30.3401C194.162 30.3401 190.88 27.4101 190.88 23.414C190.88 19.4178 194.162 16.4878 197.933 16.4878C201.658 16.4878 204.987 19.4178 204.987 23.414ZM201.259 23.414C201.259 21.5945 199.751 20.3951 197.931 20.3951C196.112 20.3951 194.602 21.639 194.602 23.414C194.602 25.2353 196.112 26.4328 197.931 26.4328C199.705 26.4328 201.259 25.1909 201.259 23.414Z" fill="black"/>
<path d="M205.696 16.8428H209.689L213.149 24.7018L216.609 16.8428H220.602L214.789 29.9418H211.507L205.696 16.8428Z" fill="black"/>
<path d="M166.565 16.4878C168.606 16.4878 169.936 17.243 170.38 18.2184V16.8876H173.929V29.9403H170.38V28.6095C169.938 29.5405 168.606 30.3401 166.565 30.3401C163.104 30.3401 160.088 27.5434 160.088 23.414C160.088 19.2845 163.106 16.4878 166.565 16.4878ZM167.186 26.4328C168.695 26.4328 169.892 25.7665 170.249 24.9224V21.8591C169.892 21.0151 168.695 20.3507 167.186 20.3507C165.144 20.3507 163.814 21.639 163.814 23.3695C163.814 25.1445 165.19 26.4328 167.186 26.4328Z" fill="black"/>
<path d="M131.65 24.569H122.111C122.468 25.9905 123.753 26.8345 125.751 26.8345C127.304 26.8345 128.856 26.257 129.566 25.3686L130.765 28.1209C129.877 29.4517 127.835 30.3401 125.484 30.3401C121.447 30.3401 118.386 27.6767 118.386 23.4584C118.386 19.7288 121.047 16.4878 125.218 16.4878C129.122 16.4878 131.741 19.7732 131.741 23.4584C131.739 23.8582 131.693 24.258 131.65 24.569ZM128.055 21.9943C127.789 20.7061 126.59 20.0397 125.172 20.0397C123.751 20.0397 122.555 20.7505 122.198 21.9943H128.055Z" fill="black"/>
<path d="M97.4426 49.4768C97.4426 52.7622 99.7952 54.6724 103.344 54.6724C104.763 54.6724 105.874 54.2726 106.671 53.6043V52.318H103.256V48.4107H110.354V54.8501C109.068 56.8472 106.982 58.7555 102.945 58.7555C98.1084 58.7555 93.5828 54.9351 93.5828 49.4749C93.5828 43.9684 98.1084 40.1055 102.945 40.1055C106.094 40.1055 108.534 41.4826 109.557 43.1687L108.401 46.5005C107.47 45.3455 105.606 44.1924 103.256 44.1924C99.7488 44.2388 97.4426 46.2803 97.4426 49.4768Z" fill="black"/>
<path d="M119.137 44.9473C121.179 44.9473 122.555 45.7025 123.041 46.6778V45.3471H126.59V58.4017H123.041V57.069C122.597 58.0019 121.177 58.7996 119.137 58.7996C115.721 58.7996 112.616 56.0048 112.616 51.8734C112.616 47.7459 115.676 44.9473 119.137 44.9473ZM119.76 54.8942C121.267 54.8942 122.51 54.2279 122.91 53.3858V50.3669C122.555 49.5229 121.267 48.8584 119.76 48.8584C117.763 48.8584 116.342 50.1448 116.342 51.8773C116.3 53.6059 117.718 54.8942 119.76 54.8942Z" fill="black"/>
<path d="M129.917 41.2622H133.6V58.4019H129.917V41.2622Z" fill="black"/>
<path d="M137.017 41.2622H140.7V58.4019H137.017V41.2622Z" fill="black"/>
<path d="M156.627 53.2061H147.132C147.487 54.5833 148.861 55.2052 150.55 55.2052C152.104 55.2052 153.788 54.674 154.541 53.606L155.695 56.4046C154.765 57.8687 152.812 58.7571 150.461 58.7571C146.468 58.7571 143.361 56.0937 143.361 51.8754C143.361 48.1458 146.024 44.9492 150.193 44.9492C154.097 44.9492 156.716 48.2346 156.716 51.8754C156.716 52.3196 156.672 52.8971 156.627 53.2061ZM152.988 50.4538C152.721 49.1656 151.569 48.5456 150.193 48.5456C148.775 48.5456 147.532 49.1656 147.221 50.4538H152.988Z" fill="black"/>
<path d="M167.319 49.3877C166.964 49.1212 166.343 48.8565 165.632 48.8565C164.347 48.8565 163.326 49.5229 163.017 50.8112V58.4037H159.335V45.349H162.884V47.0796C163.284 45.8358 164.349 44.9937 165.768 44.9937C166.744 44.9937 167.543 45.4804 167.852 46.0135L167.319 49.3877Z" fill="black"/>
<path d="M169.05 45.3472H172.999L176.104 52.6731L179.209 45.3472H183.247L175.438 63.7307H171.445L174.151 57.382L169.05 45.3472Z" fill="black"/>
</g>
<defs>
<clipPath id="clip0_53_437">
<rect width="220.455" height="69.4432" fill="white" transform="translate(0.147705 0.63623)"/>
</clipPath>
</defs>
</svg>

